<svg xmlns="http://www.w3.org/2000/svg" fill="none" viewBox="0 0 24 24" strokeWidth="1.5" stroke="currentColor"
  aria-hidden="true" data-slot="icon">
  <path d="M7.4,12.4c-1.7,0-1.8-0.1-2.2,0.3c-0.5,0.4-1.6,2.1-1.6,2.1S3,15.4,3,16.2v2.2c0,1.2,0.9,2.2,2,2.2l0,0h13.8
	c1.1,0,2-1,2-2.2l0,0c0,0,0-1.6,0-2.2c0-1-0.2-1.3-0.4-1.5l-1.9-2.3" />
  <polygon points="13,14.5 10,14.5 7,11.6 15.5,3.2 21.4,9.2 16,14.5 " />
  <path d="M3.3,15.7c0.4,0.7,1,1.2,1.8,1.2l0,0h13.8c0.7,0,1.5-0.5,1.7-1.1" />
  <line x1="10" y1="14.5" x2="6.6" y2="14.5" />
</svg>