<?xml version="1.0" encoding="UTF-8"?>
<svg id="Layer_1" data-name="Layer 1" xmlns="http://www.w3.org/2000/svg" viewBox="0 0 420.67 191.88">
  <defs>
    <style>
      .cls-1 {
        fill: #00c853;
      }

      .cls-2 {
        fill: #fff9c4;
      }

      .cls-3 {
        fill: #69f0ae;
      }

      .cls-4 {
        fill: #8c9eff;
      }

      .cls-5 {
        fill: #1c257e;
      }

      .cls-6 {
        fill: #1a237e;
      }
    </style>
  </defs>
  <path class="cls-5" d="M195.87,119.4c-.31-6.36-1.28-12.18-6.91-15.48-6.65-3.9-13.52-2.35-19.27,1.8-4.47,3.22-5.24,.75-6.71-2.48-.93-2.04-.06-3.08,1.4-4.12,8.05-5.76,16.82-7.9,26.42-4.79,7.88,2.55,11.21,8.97,12.94,16.42,1.55,6.68,1.43,13.55,2.07,20.34,.62,6.62-1.48,14.2,6.44,18.61,1.47,.82-1.02,3.38-1.56,5.18-.45,1.5-1.28,2.57-3.3,2.12-2.52-.57-5.14-1.37-6.44-3.47-2.32-3.79-4.18-2.22-6.9-.52-8.2,5.12-16.96,6.04-25.58,1.32-7.32-4.01-9.83-10.99-9.58-19.01,.49-15.68,17.12-25.13,32.21-18.36,1.5,.67,2.92,1.51,4.75,2.46Zm.33,16.53c-.3-8.92-4.47-12.44-14.41-12.17-7.53,.2-13.26,5.78-13.13,12.79,.13,7.29,5.78,12.25,13.63,11.98,9.36-.32,14.17-4.67,13.9-12.59Z"/>
  <path class="cls-5" d="M363.71,119.86c-.21-16.22-12.07-22.21-26.03-14.14-1.3,.75-2.77,4.46-4.93,1.11-1.76-2.72-3.64-5.49,.74-8.24,7.13-4.48,14.68-6.23,22.86-4.66,7.58,1.45,12.11,6.48,14.47,13.64,2.22,6.71,2.54,13.7,2.85,20.67,.21,4.65,.14,9.31,1.06,13.91,.46,2.32,.83,5.18,2.93,6.09,5.34,2.31,1.95,5.3,.71,7.65-1.95,3.68-4.77,.96-6.78-.09-6.27-3.26-6.19-3.41-13-.42-11.86,5.21-25,1.19-29.66-9.08-5.01-11.03-.59-24.61,10.51-29.08,7.91-3.19,16.37-2.95,24.28,2.66Zm.69,16.79c-.41-9.27-4.74-12.98-14.68-12.6-7.46,.29-13.21,6.02-13.02,12.98,.2,7.44,5.98,12.17,14.32,11.72,8.98-.49,13.7-4.76,13.38-12.1Z"/>
  <path class="cls-5" d="M262.13,147.18c-6.25,9.1-13.98,11.52-23,9.29-8.78-2.17-12.39-9.07-13.54-17.33-1.6-11.42-.4-22.94-.76-34.41-.05-1.5,0-3,0-4.5-.02-5.63,2.71-7.53,8.16-5.91,2.26,.67,1.46,2.34,1.48,3.65,.1,10.32,.09,20.65,.15,30.97,.02,3.34,.34,6.66,1.41,9.85,1.62,4.83,4.79,7.97,10,8.54,5.27,.58,9.53-1.34,12.37-5.84,2.83-4.5,3.69-9.58,3.72-14.82,.04-9.32,.27-18.66-.09-27.97-.16-4.14,1.51-4.62,4.91-4.45,2.98,.14,5.17-.24,5.09,4.23-.31,17.65-.26,35.3-.02,52.95,.05,3.85-1.03,4.8-4.71,4.62-3.33-.16-6.06-.08-5.19-4.63,.18-.96,.03-1.98,.03-4.24Z"/>
  <path class="cls-5" d="M289.47,106.19c0-10.15,.25-20.31-.11-30.44-.17-4.86,2.76-3.67,5.41-3.88,3.06-.24,4.81,.09,4.76,4.07-.22,18.46-.1,36.93-.09,55.4,0,3.33-.02,6.67,.9,9.91,1.73,6.06,5.36,8.44,11.23,6.22,5-1.89,3.99,2.4,5.32,4.21,2.01,2.73-.43,3.54-2.26,4.04-11.48,3.13-20.54,1.65-23.75-11.7-2.52-10.49-1.08-21.21-1.41-31.82-.06-1.99,0-3.99,0-5.99Z"/>
  <path class="cls-5" d="M408.68,191.88H54.22c-6.61,0-11.99-5.36-11.99-11.96V54.39c0-6.59,5.38-11.96,11.99-11.96H408.68c6.61,0,11.99,5.36,11.99,11.96v125.54c0,6.59-5.38,11.96-11.99,11.96ZM54.22,49.41c-2.75,0-4.99,2.23-4.99,4.98v125.54c0,2.74,2.24,4.98,4.99,4.98H408.68c2.75,0,4.99-2.23,4.99-4.98V54.39c0-2.74-2.24-4.98-4.99-4.98H54.22Z"/>
  <path class="cls-1" d="M65.29,3.98c33.86,0,61.3,27.44,61.3,61.3v.16c-.08-16.68-13.37-30.57-30.06-30.8-17.12-.24-31.24,13.57-31.24,30.65,0-17.06-13.95-30.87-31.06-30.65-16.77,.22-30.13,14.14-30.24,30.87-.01-.07-.01-.16-.01-.23C3.98,31.43,31.43,3.98,65.29,3.98Z"/>
  <path class="cls-4" d="M95.94,49.97c8.46,0,15.33,6.86,15.33,15.33s-6.86,15.33-15.33,15.33-15.33-6.86-15.33-15.33,6.86-15.33,15.33-15.33Zm5.11,15.33c0-2.82-2.29-5.11-5.11-5.11s-5.11,2.29-5.11,5.11,2.29,5.11,5.11,5.11,5.11-2.29,5.11-5.11Z"/>
  <path class="cls-4" d="M34.63,49.97c8.46,0,15.33,6.86,15.33,15.33s-6.86,15.33-15.33,15.33-15.33-6.86-15.33-15.33,6.86-15.33,15.33-15.33Zm5.11,15.33c0-2.82-2.29-5.11-5.11-5.11s-5.11,2.29-5.11,5.11,2.29,5.11,5.11,5.11,5.11-2.29,5.11-5.11Z"/>
  <circle class="cls-3" cx="95.94" cy="65.3" r="5.11"/>
  <circle class="cls-3" cx="34.63" cy="65.3" r="5.11"/>
  <path class="cls-3" d="M65.29,126.6c33.81,0,61.22-27.36,61.3-61.15v61.44c0,33.71-27.33,61.03-61.03,61.03H4.26c33.8,0,61.19-27.5,61.03-61.31Z"/>
  <path class="cls-2" d="M65.29,65.3c0-17.08,14.12-30.89,31.24-30.65,16.69,.24,29.99,14.12,30.06,30.8-.08,33.79-27.5,61.15-61.3,61.15S4.1,99.28,3.98,65.52c.12-16.74,13.48-30.66,30.24-30.88,17.11-.22,31.06,13.59,31.06,30.66Zm45.98,0c0-8.46-6.86-15.33-15.33-15.33s-15.33,6.86-15.33,15.33,6.86,15.33,15.33,15.33,15.33-6.86,15.33-15.33Zm-61.3,0c0-8.46-6.86-15.33-15.33-15.33s-15.33,6.86-15.33,15.33,6.86,15.33,15.33,15.33,15.33-6.86,15.33-15.33Z"/>
  <path class="cls-1" d="M65.29,126.6c.16,33.81-27.22,61.3-61.03,61.3h-.27V65.75c0-.07,0-.16,.01-.23,.11,33.76,27.51,61.08,61.29,61.08Z"/>
  <g>
    <path class="cls-6" d="M65.29,0C29.28,0,0,29.29,0,65.29c0,.12,.01,.22,.01,.34,0,.02,0,.04,0,.06,0,.02,0,.04,0,.06v122.16c0,2.2,1.78,3.97,3.97,3.97h61.58c35.84,0,65.01-29.16,65-65v-61.06c0-.06,0-.11,0-.17,0-.02,0-.04,0-.06v-.3C130.57,29.28,101.29,0,65.29,0Zm0,7.96c21.02,0,39.43,11.38,49.41,28.31-5.25-3.45-11.46-5.5-18.11-5.59-9.4-.13-18.26,3.44-24.95,10.04-2.57,2.53-4.69,5.39-6.33,8.48-1.64-3.11-3.76-5.99-6.34-8.54-6.54-6.45-15.16-9.99-24.32-9.99h-.46c-6.75,.09-13.06,2.19-18.37,5.72C25.78,19.39,44.22,7.96,65.29,7.96ZM7.96,96.42c10.47,19.18,30.27,32.58,53.23,34.01-.84,13.85-6.61,26.77-16.5,36.7-9.91,9.96-22.85,15.79-36.74,16.68V96.42Zm114.66,30.47c0,31.46-25.59,57.06-57.06,57.06h-30.12c5.4-2.96,10.42-6.71,14.89-11.21,11.37-11.43,17.97-26.32,18.82-42.29,23.05-1.36,42.95-14.75,53.46-33.97v30.41Zm0-61.45c-.07,31.53-25.79,57.19-57.33,57.19S8.08,97.01,7.97,65.52c.11-14.65,11.91-26.73,26.32-26.91,7.18-.07,13.98,2.64,19.1,7.69,5.07,5.01,7.88,11.67,7.93,18.78,0,.07,0,.14,0,.21v20.43c0,2.2,1.78,3.97,3.97,3.97s3.97-1.78,3.98-3.98v-20.43c0-7.16,2.82-13.87,7.95-18.93,5.17-5.1,12-7.82,19.27-7.75,13.9,.19,25.33,11.5,26.1,25.46,0,.41,.03,.81,.03,1.22v.15Z"/>
    <path class="cls-6" d="M95.94,46c-10.64,0-19.3,8.66-19.3,19.3s8.66,19.3,19.3,19.3,19.3-8.66,19.3-19.3-8.66-19.3-19.3-19.3Zm0,30.65c-6.25,0-11.35-5.09-11.35-11.35s5.09-11.35,11.35-11.35,11.35,5.09,11.35,11.35-5.09,11.35-11.35,11.35Z"/>
    <path class="cls-6" d="M34.63,46c-10.64,0-19.3,8.66-19.3,19.3s8.66,19.3,19.3,19.3,19.3-8.65,19.3-19.3-8.66-19.3-19.3-19.3Zm0,30.65c-6.25,0-11.35-5.09-11.35-11.35s5.09-11.35,11.35-11.35,11.35,5.09,11.35,11.35-5.09,11.35-11.35,11.35Z"/>
    <path class="cls-6" d="M34.63,57.35c-4.38,0-7.95,3.56-7.95,7.95s3.56,7.95,7.95,7.95,7.95-3.56,7.95-7.95-3.56-7.95-7.95-7.95Zm0,10.22c-1.25,0-2.27-1.02-2.27-2.27s1.02-2.27,2.27-2.27,2.27,1.02,2.27,2.27-1.02,2.27-2.27,2.27Z"/>
    <path class="cls-6" d="M95.94,57.35c-4.38,0-7.95,3.56-7.95,7.95s3.56,7.95,7.95,7.95,7.95-3.56,7.95-7.95-3.56-7.95-7.95-7.95Zm0,10.22c-1.25,0-2.27-1.02-2.27-2.27s1.02-2.27,2.27-2.27,2.27,1.02,2.27,2.27-1.02,2.27-2.27,2.27Z"/>
  </g>
</svg>