<?xml version="1.0" encoding="utf-8"?>
<!-- Generator: Adobe Illustrator 28.0.0, SVG Export Plug-In . SVG Version: 6.00 Build 0)  -->
<svg version="1.1" id="Layer_1" xmlns="http://www.w3.org/2000/svg" xmlns:xlink="http://www.w3.org/1999/xlink" x="0px"
  y="0px" viewBox="0 0 24 24" style="enable-background:new 0 0 24 24;" xml:space="preserve">
  <style type="text/css">
    .st0 {
      fill: none;
      stroke: currentColor;
      stroke-width: 1.5;
    }
  </style>
  <path class="st0" d="M6.3,12.6c-2,0-2.2-0.1-2.6,0.4c-0.6,0.5-1.9,2.5-1.9,2.5S1,16.2,1,17.2v2.6c0,1.4,1.1,2.6,2.4,2.6l0,0h16.5
	c1.3,0,2.4-1.2,2.4-2.6l0,0c0,0,0-1.9,0-2.6c0-1.2-0.2-1.6-0.5-1.8l-2.3-2.7" />
  <polygon class="st0" points="12.8,15.1 9.2,15.1 5.6,11.7 15.7,1.6 22.8,8.8 16.3,15.1 " />
  <path class="st0" d="M3.4,16.5c0.4,0.7,1,1.2,1.7,1.2l0,0h13.4c0.7,0,1.5-0.5,1.6-1.1" />
  <line class="st0" x1="18.5" y1="15.1" x2="5.4" y2="15.1" />
</svg>