<?xml version="1.0" encoding="utf-8"?>
<!-- Generator: Adobe Illustrator 28.0.0, SVG Export Plug-In . SVG Version: 6.00 Build 0)  -->
<svg version="1.1" id="Ebene_1" xmlns="http://www.w3.org/2000/svg" xmlns:xlink="http://www.w3.org/1999/xlink" x="0px" y="0px"
	 viewBox="0 0 503 231.3" style="enable-background:new 0 0 503 231.3;" xml:space="preserve">
<style type="text/css">
	.st0{fill:#FFFFFF;}
	.st1{fill:#212450;}
	.st2{fill:#65E07F;}
	.st3{fill:#69A6D6;}
	.st4{fill:#C8F3D1;}
	.st5{fill:#FFF8E3;}
</style>
<g>
	<path class="st0" d="M503,63.6v152c0,8.4-6.7,15.3-15.1,15.3H63.5c-8.3,0-15.1-6.9-15.1-15.3v-152c0-8.4,6.7-15.3,15.1-15.3h424.4
		C496.3,48.3,503,55.2,503,63.6z"/>
	<path class="st1" d="M488.1,55.4c4.4,0,7.9,3.7,7.9,8.2v152c0,4.5-3.6,8.2-7.9,8.2H63.5c-4.4,0-7.9-3.7-7.9-8.2v-152
		c0-4.5,3.6-8.2,7.9-8.2h424.4 M488.1,48.3H63.5c-8.3,0-15.1,6.9-15.1,15.3v152c0,8.4,6.7,15.3,15.1,15.3h424.4
		c8.3,0,15.1-6.9,15.1-15.3v-152c0-8.4-6.7-15.3-15.1-15.3l0,0L488.1,48.3z"/>
</g>
<g>
	<path class="st1" d="M259,181.7l-4.4,9.5c-6.1-0.1-11.2-3.7-13.9-9c-5.8,5.8-14,9-22.2,9c-15.4,0-25.5-10.2-25.5-25.6
		s12-26,25.5-26c13.5,0,14.9,2.6,19.5,6.5c-0.3-10.4-3.7-22-17.7-22s-14,3.3-19.4,7.9l-4.1-8.7c6.1-6.1,15.6-9.9,24.3-9.9
		c44.8,0,17,68.8,37.6,68.5L259,181.7z M204.9,165.4c0,9.2,6.6,15.2,15.8,15.2s13.7-2.8,18.1-7.9l-0.4-15.8
		c-4.2-4.4-9.6-6.5-17.7-6.5S204.9,157.1,204.9,165.4z"/>
	<path class="st1" d="M284.9,114.7v37.5c0,11.7,1.1,27.1,16.2,27.1s17.7-15.7,17.7-27.1v-37.5h11.6v75h-11.6v-12.5
		c-3,9-12.1,14-21.3,14c-18.2,0-24-15.3-24-31s-0.1-30.2-0.1-45.3H285L284.9,114.7z"/>
	<path class="st1" d="M363.7,87.5v73.4c0,7,0.9,19.4,10.3,19.4c9.4,0,5.7-0.9,8.1-2.5l4.2,9.4c-4.2,2.9-9.4,4.1-14.3,4.1
		c-18.2,0-20.3-19.3-20.3-33.3V87.7h12L363.7,87.5z"/>
	<path class="st1" d="M463.1,182.1l-4.4,9.5c-6.1-0.1-11.2-3.7-13.9-9c-5.8,5.8-14,9-22.2,9c-15.4,0-25.5-10.2-25.5-25.6
		s12-26,25.5-26c13.5,0,14.9,2.6,19.5,6.5c-0.3-10.4-3.7-22-17.7-22s-14,3.3-19.4,7.9l-4.1-8.7c6.1-6.1,15.6-9.9,24.3-9.9
		c44.8,0,17,68.8,37.6,68.5L463.1,182.1z M409,165.8c0,9.2,6.6,15.2,15.8,15.2c9.2,0,13.7-2.8,18.1-7.9l-0.4-15.8
		c-4.2-4.4-9.6-6.5-17.7-6.5S409,157.5,409,165.8L409,165.8z"/>
</g>
<g>
	<path class="st2" d="M78.3,3.4c41.3,0,74.7,33.4,74.7,74.7l0,0c0-20.2-16.2-37.1-36.7-37.4c-20.9-0.3-38,16.5-38,37.4
		c0-20.9-17-37.6-37.9-37.4C19.9,41.1,3.7,58.1,3.6,78.4c0,0,0-0.1,0-0.3C3.6,36.8,37,3.4,78.3,3.4L78.3,3.4z"/>
	<path class="st3" d="M115.7,59.4c10.3,0,18.6,8.3,18.6,18.6s-8.3,18.6-18.6,18.6S97,88.3,97,78S105.4,59.4,115.7,59.4z"/>
	<path class="st3" d="M40.9,59.4c10.3,0,18.6,8.3,18.6,18.6s-8.3,18.6-18.6,18.6S22.3,88.3,22.3,78S30.6,59.4,40.9,59.4z"/>
	<path class="st4" d="M78.3,152.9c41.2,0,74.6-33.4,74.7-74.6l0,0v74.9c0,41.1-33.3,74.3-74.3,74.3H4c41.2,0,74.6-33.5,74.3-74.7
		L78.3,152.9z"/>
	<path class="st5" d="M78.3,78.2c0-20.9,17.2-37.6,38-37.4c20.3,0.3,36.6,17.2,36.7,37.5c0,41.2-33.5,74.6-74.7,74.6
		S3.7,119.6,3.6,78.4C3.7,58,19.9,41.1,40.4,40.8C61.3,40.5,78.3,57.3,78.3,78.2L78.3,78.2z M134.3,78.2c0-10.3-8.3-18.6-18.6-18.6
		S97,67.9,97,78.2s8.3,18.6,18.6,18.6S134.3,88.5,134.3,78.2z M59.5,78.2c0-10.3-8.3-18.6-18.6-18.6s-18.6,8.3-18.6,18.6
		s8.3,18.6,18.6,18.6S59.5,88.5,59.5,78.2z"/>
	<path class="st2" d="M78.3,152.9c0.1,41.2-33.1,74.7-74.3,74.7H3.6V78.7c0,0,0-0.1,0-0.3C3.7,119.6,37.1,152.9,78.3,152.9
		L78.3,152.9z"/>
	<g>
		<path class="st1" d="M156.4,76.2C155.4,33.9,120.7,0,78.3,0S0.4,34.7,0,77.5c0,0.3,0,0.5,0,0.9c0,0.1,0,0.3,0,0.4v148.9
			c0,2,1.6,3.6,3.6,3.6h75.1c43,0,77.9-35,77.9-77.9V78.6c0-0.8,0-1.5,0-2.2L156.4,76.2z M149.3,78.2L149.3,78.2
			c0,39.3-31.9,71.2-71.2,71.2S7.3,117.6,7,78.6l0,0v-0.3l0,0c0-0.5,0-1.1,0-1.5C7.9,59,22.6,44.6,40.3,44.4h0.4
			c9,0,17.4,3.4,23.8,9.8c6.5,6.3,10,14.9,10,24v25c0,2,1.6,3.6,3.6,3.6s3.6-1.6,3.6-3.6v-25c0-9.1,3.6-17.6,10-24
			c6.5-6.3,14.9-9.8,24-9.8h0.4c17.6,0.3,31.9,14.4,33,32.1c0,0.5,0,1.2,0,1.7H149.3z M7.1,110.6C19,136.5,44.6,155,74.6,156.3
			c-0.8,17.7-7.9,34.2-20.6,46.9s-29.2,19.9-47,20.7V110.6L7.1,110.6z M78.3,7c28.3,0,52.5,16.5,64.2,40.3c-7-6.2-16.1-9.9-26-10
			c-0.3,0-0.4,0-0.7,0c-10.8,0-21.1,4.2-28.9,11.9c-3.7,3.6-6.6,7.8-8.6,12.4c-2.1-4.6-4.9-8.8-8.6-12.4c-7.7-7.7-18-11.7-28.8-11.7
			s-0.4,0-0.5,0c-10,0-19.1,4-26.3,10.3C25.6,23.8,50,7.1,78.3,7.1L78.3,7z M78.6,224H36.4c8.3-3.8,16-9.1,22.6-15.8
			c13.9-14,21.9-32.3,22.6-51.9c30.1-1.3,55.7-19.7,67.7-45.7v42.5c0,39.1-31.8,70.8-70.8,70.8L78.6,224z"/>
		<path class="st1" d="M115.7,54.7c-12.9,0-23.5,10.6-23.5,23.5s10.6,23.5,23.5,23.5s23.5-10.6,23.5-23.5S128.6,54.7,115.7,54.7z
			 M115.7,95.1c-9.4,0-16.9-7.5-16.9-16.9s7.5-16.9,16.9-16.9s16.9,7.5,16.9,16.9S125,95.1,115.7,95.1z"/>
		<path class="st1" d="M40.9,54.7c-12.9,0-23.5,10.6-23.5,23.5s10.6,23.5,23.5,23.5s23.5-10.6,23.5-23.5S53.9,54.7,40.9,54.7z
			 M40.9,95.1c-9.4,0-16.9-7.5-16.9-16.9s7.5-16.9,16.9-16.9s16.9,7.5,16.9,16.9S50.3,95.1,40.9,95.1z"/>
		<circle class="st1" cx="40.9" cy="78.2" r="7.7"/>
		<circle class="st1" cx="115.7" cy="78.2" r="7.7"/>
	</g>
</g>
</svg>
