<?xml version="1.0" encoding="utf-8"?>
<!-- Generator: Adobe Illustrator 26.4.1, SVG Export Plug-In . SVG Version: 6.00 Build 0)  -->
<svg version="1.1" id="Ebene_1" xmlns="http://www.w3.org/2000/svg" xmlns:xlink="http://www.w3.org/1999/xlink" x="0px" y="0px"
	 viewBox="0 0 200 200" style="enable-background:new 0 0 200 200;" xml:space="preserve">
<style type="text/css">
	.st0{fill:#00C853;}
	.st1{fill:#8C9EFF;}
	.st2{fill:#69F0AE;}
	.st3{fill:#FFF9C4;}
	.st4{fill:#1A237E;}
</style>
<g>
	<g>
		<path class="st0" d="M100,6.1c51.9,0,93.9,42,93.9,93.9c0,0.1,0,0.2,0,0.2c-0.1-25.6-20.5-46.8-46-47.2
			C121.6,52.7,100,73.8,100,100c0-26.1-21.4-47.3-47.6-46.9C26.7,53.4,6.3,74.7,6.1,100.4c0-0.1,0-0.2,0-0.4
			C6.1,48.1,48.1,6.1,100,6.1z"/>
	</g>
	<g>
		<path class="st1" d="M146.9,76.5c13,0,23.5,10.5,23.5,23.5s-10.5,23.5-23.5,23.5c-13,0-23.5-10.5-23.5-23.5S134,76.5,146.9,76.5z
			 M154.8,100c0-4.3-3.5-7.8-7.8-7.8c-4.3,0-7.8,3.5-7.8,7.8s3.5,7.8,7.8,7.8C151.3,107.8,154.8,104.3,154.8,100z"/>
	</g>
	<g>
		<path class="st1" d="M53.1,76.5c13,0,23.5,10.5,23.5,23.5S66,123.5,53.1,123.5S29.6,113,29.6,100S40.1,76.5,53.1,76.5z M60.9,100
			c0-4.3-3.5-7.8-7.8-7.8s-7.8,3.5-7.8,7.8s3.5,7.8,7.8,7.8S60.9,104.3,60.9,100z"/>
	</g>
	<g>
		<circle class="st2" cx="146.9" cy="100" r="7.8"/>
	</g>
	<g>
		<circle class="st2" cx="53.1" cy="100" r="7.8"/>
	</g>
	<g>
		<path class="st3" d="M100,100c0-26.2,21.6-47.3,47.9-46.9c25.6,0.4,45.9,21.6,46,47.2c-0.1,51.8-42.1,93.7-93.9,93.7
			c-51.7,0-93.7-41.8-93.9-93.6c0.2-25.6,20.6-47,46.3-47.3C78.6,52.7,100,73.9,100,100z M170.4,100c0-13-10.5-23.5-23.5-23.5
			c-13,0-23.5,10.5-23.5,23.5s10.5,23.5,23.5,23.5C159.9,123.5,170.4,113,170.4,100z M76.5,100c0-13-10.5-23.5-23.5-23.5
			S29.6,87,29.6,100s10.5,23.5,23.5,23.5S76.5,113,76.5,100z"/>
	</g>
	<g>
		<path class="st4" d="M100,137.4c-3.4,0-6.1-2.7-6.1-6.1V100c0-14.2,5.6-27.6,15.8-37.7C120,52.2,133.6,46.8,147.9,47
			c28.6,0.4,51.9,24.3,52.1,53.2v0.3c0,3.4-2.7,6.1-6.1,6.1c-3.4,0-6.1-2.7-6.1-6.1v-0.2c-0.1-22.3-18.1-40.8-40-41.1
			c-11.1-0.1-21.6,4.1-29.5,11.9c-7.9,7.7-12.2,18-12.2,29v31.3C106.1,134.7,103.4,137.4,100,137.4z"/>
	</g>
	<g>
		<path class="st4" d="M100,200c-54.9,0-99.7-44.6-100-99.5c0-0.2,0-0.3,0-0.5C0,44.9,44.9,0,100,0s100,44.9,100,100v0.2
			C199.9,155.2,155,200,100,200z M12.2,100l0,0.3c0.2,48.2,39.6,87.5,87.8,87.5c48.3,0,87.7-39.3,87.8-87.6V100
			c0-48.4-39.4-87.8-87.8-87.8S12.2,51.6,12.2,100L12.2,100L12.2,100z"/>
	</g>
	<g>
		<path class="st4" d="M146.9,129.6c-16.3,0-29.6-13.3-29.6-29.6s13.3-29.6,29.6-29.6s29.6,13.3,29.6,29.6S163.3,129.6,146.9,129.6z
			 M146.9,82.6c-9.6,0-17.4,7.8-17.4,17.4s7.8,17.4,17.4,17.4c9.6,0,17.4-7.8,17.4-17.4S156.5,82.6,146.9,82.6z"/>
	</g>
	<g>
		<path class="st4" d="M53.1,129.6c-16.3,0-29.6-13.3-29.6-29.6s13.3-29.6,29.6-29.6S82.6,83.7,82.6,100S69.3,129.6,53.1,129.6z
			 M53.1,82.6c-9.6,0-17.4,7.8-17.4,17.4s7.8,17.4,17.4,17.4c9.6,0,17.4-7.8,17.4-17.4S62.6,82.6,53.1,82.6z"/>
	</g>
	<g>
		<path class="st4" d="M6.1,106.7c-3.4,0-6.1-2.7-6.1-6.1c0-0.2,0-0.4,0-0.5c0.3-29,23.7-52.8,52.3-53.2c0.2,0,0.5,0,0.7,0
			c14,0,27.2,5.4,37.3,15.3c10.2,10,15.8,23.5,15.8,37.8c0,3.4-2.7,6.1-6.1,6.1s-6.1-2.7-6.1-6.1c0-11-4.3-21.3-12.2-29.1
			S63.5,59,52.5,59.1c-22.1,0.3-40.2,18.8-40.3,41.2l0,0.3C12.1,104,9.4,106.7,6.1,106.7z"/>
	</g>
	<g>
		<path class="st4" d="M53.1,112.2c-6.7,0-12.2-5.5-12.2-12.2s5.5-12.2,12.2-12.2s12.2,5.5,12.2,12.2S59.8,112.2,53.1,112.2z
			 M53.1,96.5c-1.9,0-3.5,1.6-3.5,3.5s1.6,3.5,3.5,3.5c1.9,0,3.5-1.6,3.5-3.5S55,96.5,53.1,96.5z"/>
	</g>
	<g>
		<path class="st4" d="M146.9,112.2c-6.7,0-12.2-5.5-12.2-12.2s5.5-12.2,12.2-12.2c6.7,0,12.2,5.5,12.2,12.2
			S153.7,112.2,146.9,112.2z M146.9,96.5c-1.9,0-3.5,1.6-3.5,3.5s1.6,3.5,3.5,3.5c1.9,0,3.5-1.6,3.5-3.5S148.9,96.5,146.9,96.5z"/>
	</g>
</g>
</svg>
