<?xml version="1.0" encoding="UTF-8"?>
<svg id="Ebene_1" data-name="Ebene 1" xmlns="http://www.w3.org/2000/svg" viewBox="0 0 240 295">
  <defs>
    <style>
      .cls-1 {
        fill: #69a6d6;
      }

      .cls-2 {
        fill: #212450;
      }

      .cls-3 {
        fill: #c8f3d1;
      }

      .cls-4 {
        fill: #65e07f;
      }

      .cls-5 {
        fill: #fff8e3;
      }
    </style>
  </defs>
  <path class="cls-4" d="M120,62.6c31.3,0,56.6,25.3,56.6,56.6h0c0-15.3-12.3-28.1-27.8-28.3-15.8-.2-28.9,12.5-28.9,28.3,0-15.8-12.9-28.5-28.7-28.3-15.5.2-27.8,13.1-27.9,28.5,0,0,0-.1,0-.2,0-31.3,25.3-56.6,56.6-56.6Z"/>
  <path class="cls-1" d="M148.3,105c7.8,0,14.2,6.3,14.2,14.2s-6.3,14.2-14.2,14.2-14.2-6.3-14.2-14.2,6.3-14.2,14.2-14.2Z"/>
  <path class="cls-1" d="M91.7,105c7.8,0,14.2,6.3,14.2,14.2s-6.3,14.2-14.2,14.2-14.2-6.3-14.2-14.2,6.3-14.2,14.2-14.2Z"/>
  <path class="cls-3" d="M120,175.8c31.2,0,56.5-25.3,56.6-56.5h0v56.7c0,31.1-25.2,56.4-56.4,56.4h-56.6c31.2,0,56.5-25.4,56.4-56.6Z"/>
  <path class="cls-5" d="M120,119.2c0-15.8,13-28.5,28.9-28.3,15.4.2,27.7,13,27.8,28.4,0,31.2-25.4,56.5-56.6,56.5s-56.5-25.2-56.6-56.4c.1-15.5,12.4-28.3,27.9-28.5,15.8-.2,28.7,12.6,28.7,28.3ZM162.5,119.2c0-7.8-6.3-14.2-14.2-14.2s-14.2,6.3-14.2,14.2,6.3,14.2,14.2,14.2,14.2-6.3,14.2-14.2ZM105.8,119.2c0-7.8-6.3-14.2-14.2-14.2s-14.2,6.3-14.2,14.2,6.3,14.2,14.2,14.2,14.2-6.3,14.2-14.2Z"/>
  <path class="cls-4" d="M120,175.8c.1,31.2-25.1,56.6-56.4,56.6h-.3v-112.8c0,0,0-.1,0-.2.1,31.2,25.4,56.4,56.6,56.4Z"/>
  <g>
    <path class="cls-2" d="M179.3,117.6c-.8-32-27.1-57.8-59.3-57.8s-59,26.3-59.3,58.7c0,.2,0,.4,0,.7,0,.1,0,.2,0,.3v112.8c0,.6.2,1.1.5,1.5.4.6,1,1,1.7,1.1.2,0,.4,0,.5,0h56.9c32.6,0,59.1-26.5,59.1-59.1v-56.8c0-.6,0-1.1,0-1.7ZM120,65.1c21.6,0,40.2,12.7,48.9,31-5.4-4.8-12.3-7.8-20-7.9-.2,0-.3,0-.5,0-8.2,0-16,3.2-21.9,9-2.8,2.7-5,5.9-6.5,9.4-1.6-3.5-3.7-6.7-6.5-9.4-5.8-5.8-13.6-8.9-21.8-8.9s-.3,0-.4,0c-7.7.1-14.8,3.1-20.2,8.1,8.6-18.4,27.3-31.1,48.9-31.1ZM66.1,143.8c9,19.7,28.5,33.6,51.2,34.6-.6,13.4-6,25.9-15.6,35.5-9.6,9.6-22.1,15.1-35.6,15.7v-85.9ZM173.9,176.1c0,29.6-24.1,53.7-53.7,53.7h-31.9c6.3-2.9,12.1-6.9,17.1-12,10.5-10.6,16.6-24.5,17.2-39.3,22.8-1,42.2-14.9,51.3-34.6v32.3ZM173.9,119.5v3.4c-1.9,28.1-25.4,50.3-53.9,50.3s-52.1-22.4-53.9-50.5v-3.1s0,0,0,0,0,0,0,0v-.2c.1-14,11.4-25.6,25.3-25.8h.3c6.8,0,13.2,2.6,18,7.4,4.9,4.9,7.6,11.3,7.6,18.2v18.9c0,1.5,1.2,2.7,2.7,2.7s2.7-1.2,2.7-2.7v-18.9c0-6.9,2.7-13.3,7.6-18.2,4.9-4.8,11.3-7.4,18.2-7.4h.3c13.8.2,25,11.7,25.1,25.7h0Z"/>
    <path class="cls-2" d="M148.3,101.4c-9.8,0-17.8,8-17.8,17.8s8,17.8,17.8,17.8,17.8-8,17.8-17.8-8-17.8-17.8-17.8ZM148.3,131.8c-6.9,0-12.6-5.6-12.6-12.6s5.6-12.6,12.6-12.6,12.6,5.6,12.6,12.6-5.6,12.6-12.6,12.6Z"/>
    <path class="cls-2" d="M91.7,101.4c-9.8,0-17.8,8-17.8,17.8s8,17.8,17.8,17.8,17.8-8,17.8-17.8-8-17.8-17.8-17.8ZM91.7,131.8c-6.9,0-12.6-5.6-12.6-12.6s5.6-12.6,12.6-12.6,12.6,5.6,12.6,12.6-5.6,12.6-12.6,12.6Z"/>
    <circle class="cls-2" cx="91.7" cy="119.2" r="5.8"/>
    <circle class="cls-2" cx="148.3" cy="119.2" r="5.8"/>
  </g>
</svg>