<?xml version="1.0" encoding="utf-8"?>
<!-- Generator: Adobe Illustrator 28.0.0, SVG Export Plug-In . SVG Version: 6.00 Build 0)  -->
<svg version="1.1" id="Ebene_1" xmlns="http://www.w3.org/2000/svg" xmlns:xlink="http://www.w3.org/1999/xlink" x="0px" y="0px"
	 viewBox="0 0 118.6 174.8" style="enable-background:new 0 0 118.6 174.8;" xml:space="preserve">
<style type="text/css">
	.st0{fill:#65E07F;}
	.st1{fill:#69A6D6;}
	.st2{fill:#C8F3D1;}
	.st3{fill:#FFF8E3;}
	.st4{fill:#212450;}
</style>
<path class="st0" d="M59.3,2.5c31.3,0,56.6,25.3,56.6,56.6l0,0c0-15.3-12.3-28.1-27.8-28.3c-15.8-0.2-28.9,12.5-28.9,28.3
	c0-15.8-12.9-28.5-28.7-28.3C15,31,2.7,43.9,2.6,59.3c0,0,0-0.1,0-0.2c0-31.3,25.3-56.6,56.6-56.6H59.3z"/>
<path class="st1" d="M87.6,44.9c7.8,0,14.2,6.3,14.2,14.2s-6.3,14.2-14.2,14.2S73.4,67,73.4,59.1S79.7,44.9,87.6,44.9z"/>
<path class="st1" d="M31,44.9c7.8,0,14.2,6.3,14.2,14.2S38.9,73.3,31,73.3S16.8,67,16.8,59.1S23.1,44.9,31,44.9z"/>
<path class="st2" d="M59.3,115.7c31.2,0,56.5-25.3,56.6-56.5l0,0v56.7c0,31.1-25.2,56.4-56.4,56.4H2.9
	C34.1,172.3,59.4,146.9,59.3,115.7L59.3,115.7z"/>
<path class="st3" d="M59.3,59.1c0-15.8,13-28.5,28.9-28.3c15.4,0.2,27.7,13,27.8,28.4c0,31.2-25.4,56.5-56.6,56.5S2.9,90.5,2.8,59.3
	C2.9,43.8,15.2,31,30.7,30.8c15.8-0.2,28.7,12.6,28.7,28.3L59.3,59.1z M101.8,59.1c0-7.8-6.3-14.2-14.2-14.2s-14.2,6.3-14.2,14.2
	s6.3,14.2,14.2,14.2S101.8,67,101.8,59.1z M45.1,59.1c0-7.8-6.3-14.2-14.2-14.2s-14.2,6.3-14.2,14.2S23,73.3,30.9,73.3
	S45.1,67,45.1,59.1z"/>
<path class="st0" d="M59.3,115.7c0.1,31.2-25.1,56.6-56.4,56.6H2.6V59.5c0,0,0-0.1,0-0.2c0.1,31.2,25.4,56.4,56.6,56.4L59.3,115.7z"
	/>
<g>
	<path class="st4" d="M118.6,57.5c-0.8-32-27.1-57.8-59.3-57.8S0.3,26,0,58.4c0,0.2,0,0.4,0,0.7c0,0.1,0,0.2,0,0.3v112.8
		c0,0.6,0.2,1.1,0.5,1.5c0.4,0.6,1,1,1.7,1.1c0.2,0,0.4,0,0.5,0h56.9c32.6,0,59.1-26.5,59.1-59.1V58.9c0-0.6,0-1.1,0-1.7L118.6,57.5
		z M59.3,5c21.6,0,40.2,12.7,48.9,31c-5.4-4.8-12.3-7.8-20-7.9c-0.2,0-0.3,0-0.5,0c-8.2,0-16,3.2-21.9,9c-2.8,2.7-5,5.9-6.5,9.4
		c-1.6-3.5-3.7-6.7-6.5-9.4C47,31.3,39.2,28.2,31,28.2s-0.3,0-0.4,0c-7.7,0.1-14.8,3.1-20.2,8.1C19,17.9,37.7,5.2,59.3,5.2L59.3,5z
		 M5.4,83.7c9,19.7,28.5,33.6,51.2,34.6c-0.6,13.4-6,25.9-15.6,35.5s-22.1,15.1-35.6,15.7V83.6L5.4,83.7z M113.2,116
		c0,29.6-24.1,53.7-53.7,53.7H27.6c6.3-2.9,12.1-6.9,17.1-12c10.5-10.6,16.6-24.5,17.2-39.3c22.8-1,42.2-14.9,51.3-34.6V116
		L113.2,116z M113.2,59.4v3.4c-1.9,28.1-25.4,50.3-53.9,50.3S7.2,90.7,5.4,62.6v-3.1l0,0l0,0v-0.2c0.1-14,11.4-25.6,25.3-25.8H31
		c6.8,0,13.2,2.6,18,7.4c4.9,4.9,7.6,11.3,7.6,18.2V78c0,1.5,1.2,2.7,2.7,2.7S62,79.5,62,78V59.1c0-6.9,2.7-13.3,7.6-18.2
		c4.9-4.8,11.3-7.4,18.2-7.4h0.3c13.8,0.2,25,11.7,25.1,25.7l0,0V59.4z"/>
	<path class="st4" d="M87.6,41.3c-9.8,0-17.8,8-17.8,17.8s8,17.8,17.8,17.8s17.8-8,17.8-17.8S97.4,41.3,87.6,41.3z M87.6,71.7
		c-6.9,0-12.6-5.6-12.6-12.6s5.6-12.6,12.6-12.6s12.6,5.6,12.6,12.6S94.6,71.7,87.6,71.7z"/>
	<path class="st4" d="M31,41.3c-9.8,0-17.8,8-17.8,17.8s8,17.8,17.8,17.8s17.8-8,17.8-17.8S40.8,41.3,31,41.3z M31,71.7
		c-6.9,0-12.6-5.6-12.6-12.6S24,46.5,31,46.5s12.6,5.6,12.6,12.6S38,71.7,31,71.7z"/>
	<circle class="st4" cx="31" cy="59.1" r="5.8"/>
	<circle class="st4" cx="87.6" cy="59.1" r="5.8"/>
</g>
</svg>
