<?xml version="1.0" encoding="UTF-8"?>
<svg id="Ebene_1" data-name="Ebene 1" xmlns="http://www.w3.org/2000/svg" viewBox="0 0 503 297">
  <defs>
    <style>
      .cls-1 {
        fill: #69a6d6;
      }

      .cls-2 {
        fill: #212450;
      }

      .cls-3 {
        fill: #fff;
      }

      .cls-4 {
        fill: #c8f3d1;
      }

      .cls-5 {
        fill: #65e07f;
      }

      .cls-6 {
        fill: #fff8e3;
      }
    </style>
  </defs>
  <g>
    <path class="cls-3" d="M442,109.2v115.1c0,6.4-5.1,11.6-11.4,11.6H109.1c-6.3,0-11.4-5.2-11.4-11.6v-115.1c0-6.4,5.1-11.6,11.4-11.6h321.5c6.3,0,11.4,5.2,11.4,11.6Z"/>
    <path class="cls-2" d="M430.7,103c3.3,0,6,2.8,6,6.2v115.1c0,3.4-2.7,6.2-6,6.2H109.1c-3.3,0-6-2.8-6-6.2v-115.1c0-3.4,2.7-6.2,6-6.2h321.5M430.7,97.6H109.1c-6.3,0-11.4,5.2-11.4,11.6v115.1c0,6.4,5.1,11.6,11.4,11.6h321.5c6.3,0,11.4-5.2,11.4-11.6v-115.1c0-6.4-5.1-11.6-11.4-11.6h0Z"/>
  </g>
  <g>
    <path class="cls-2" d="M257.2,198.6l-3.3,7.2c-4.6-.1-8.5-2.8-10.5-6.8-4.4,4.4-10.6,6.8-16.8,6.8-11.7,0-19.3-7.7-19.3-19.4s9.1-19.7,19.3-19.7,11.3,2,14.8,4.9c-.2-7.9-2.8-16.7-13.4-16.7s-10.6,2.5-14.7,6l-3.1-6.6c4.6-4.6,11.8-7.5,18.4-7.5,33.9,0,12.9,52.1,28.5,51.9ZM216.2,186.3c0,7,5,11.5,12,11.5s10.4-2.1,13.7-6l-.3-12c-3.2-3.3-7.3-4.9-13.4-4.9s-12,5.1-12,11.4Z"/>
    <path class="cls-2" d="M276.8,147.9v28.4c0,8.9.8,20.5,12.3,20.5s13.4-11.9,13.4-20.5v-28.4h8.8v56.8h-8.8v-9.5c-2.3,6.8-9.2,10.6-16.1,10.6-13.8,0-18.2-11.6-18.2-23.5s-.1-22.9-.1-34.3h8.8Z"/>
    <path class="cls-2" d="M336.5,127.3v55.6c0,5.3.7,14.7,7.8,14.7s4.3-.7,6.1-1.9l3.2,7.1c-3.2,2.2-7.1,3.1-10.8,3.1-13.8,0-15.4-14.6-15.4-25.2v-53.3h9.1Z"/>
    <path class="cls-2" d="M411.8,198.9l-3.3,7.2c-4.6-.1-8.5-2.8-10.5-6.8-4.4,4.4-10.6,6.8-16.8,6.8-11.7,0-19.3-7.7-19.3-19.4s9.1-19.7,19.3-19.7,11.3,2,14.8,4.9c-.2-7.9-2.8-16.7-13.4-16.7s-10.6,2.5-14.7,6l-3.1-6.6c4.6-4.6,11.8-7.5,18.4-7.5,33.9,0,12.9,52.1,28.5,51.9ZM370.8,186.6c0,7,5,11.5,12,11.5s10.4-2.1,13.7-6l-.3-12c-3.2-3.3-7.3-4.9-13.4-4.9s-12,5.1-12,11.4Z"/>
  </g>
  <g>
    <path class="cls-5" d="M120.3,63.6c31.3,0,56.6,25.3,56.6,56.6h0c0-15.3-12.3-28.1-27.8-28.3-15.8-.2-28.8,12.5-28.8,28.3,0-15.8-12.9-28.5-28.7-28.3-15.5.2-27.8,13.1-27.9,28.5,0,0,0-.1,0-.2,0-31.3,25.3-56.6,56.6-56.6Z"/>
    <path class="cls-1" d="M148.6,106c7.8,0,14.1,6.3,14.1,14.1s-6.3,14.1-14.1,14.1-14.1-6.3-14.1-14.1,6.3-14.1,14.1-14.1Z"/>
    <path class="cls-1" d="M92,106c7.8,0,14.1,6.3,14.1,14.1s-6.3,14.1-14.1,14.1-14.1-6.3-14.1-14.1,6.3-14.1,14.1-14.1Z"/>
    <path class="cls-4" d="M120.3,176.8c31.2,0,56.5-25.3,56.6-56.5h0v56.7c0,31.1-25.2,56.3-56.3,56.3h-56.6c31.2,0,56.5-25.4,56.3-56.6Z"/>
    <path class="cls-6" d="M120.3,120.2c0-15.8,13-28.5,28.8-28.3,15.4.2,27.7,13,27.8,28.4,0,31.2-25.4,56.5-56.6,56.5s-56.5-25.2-56.6-56.4c.1-15.5,12.4-28.3,27.9-28.5,15.8-.2,28.7,12.5,28.7,28.3ZM162.7,120.2c0-7.8-6.3-14.1-14.1-14.1s-14.1,6.3-14.1,14.1,6.3,14.1,14.1,14.1,14.1-6.3,14.1-14.1ZM106.1,120.2c0-7.8-6.3-14.1-14.1-14.1s-14.1,6.3-14.1,14.1,6.3,14.1,14.1,14.1,14.1-6.3,14.1-14.1Z"/>
    <path class="cls-5" d="M120.3,176.8c.1,31.2-25.1,56.6-56.3,56.6h-.3v-112.8c0,0,0-.1,0-.2.1,31.2,25.4,56.4,56.6,56.4Z"/>
    <g>
      <path class="cls-2" d="M179.5,118.7c-.8-32-27.1-57.7-59.2-57.7s-59,26.3-59.3,58.7c0,.2,0,.4,0,.7,0,.1,0,.2,0,.3v112.8c0,1.5,1.2,2.7,2.7,2.7h56.9c32.6,0,59-26.5,59-59v-56.7c0-.6,0-1.1,0-1.7ZM174.1,120.2h0c0,29.8-24.2,53.9-53.9,53.9s-53.7-24-53.9-53.6h0c0,0,0-.2,0-.2h0c0-.4,0-.8,0-1.1.7-13.5,11.8-24.4,25.2-24.6h.3c6.8,0,13.2,2.6,18,7.4,4.9,4.8,7.6,11.3,7.6,18.2v18.9c0,1.5,1.2,2.7,2.7,2.7s2.7-1.2,2.7-2.7v-18.9c0-6.9,2.7-13.3,7.6-18.2,4.9-4.8,11.3-7.4,18.2-7.4h.3c13.3.2,24.2,10.9,25,24.3,0,.4,0,.9,0,1.3ZM66.4,144.8c9,19.6,28.4,33.6,51.1,34.6-.6,13.4-6,25.9-15.6,35.5-9.6,9.6-22.1,15.1-35.6,15.7v-85.8ZM120.3,66.3c21.4,0,39.8,12.5,48.6,30.5-5.3-4.7-12.2-7.5-19.7-7.6-.2,0-.3,0-.5,0-8.2,0-16,3.2-21.9,9-2.8,2.7-5,5.9-6.5,9.4-1.6-3.5-3.7-6.7-6.5-9.4-5.8-5.8-13.6-8.9-21.8-8.9s-.3,0-.4,0c-7.6,0-14.5,3-19.9,7.8,8.7-18.1,27.2-30.7,48.6-30.7ZM120.5,230.7h-31.9c6.3-2.9,12.1-6.9,17.1-12,10.5-10.6,16.6-24.5,17.1-39.3,22.8-1,42.2-14.9,51.3-34.6v32.2c0,29.6-24.1,53.6-53.6,53.6Z"/>
      <path class="cls-2" d="M148.6,102.4c-9.8,0-17.8,8-17.8,17.8s8,17.8,17.8,17.8,17.8-8,17.8-17.8-8-17.8-17.8-17.8ZM148.6,133c-7.1,0-12.8-5.7-12.8-12.8s5.7-12.8,12.8-12.8,12.8,5.7,12.8,12.8-5.7,12.8-12.8,12.8Z"/>
      <path class="cls-2" d="M92,102.4c-9.8,0-17.8,8-17.8,17.8s8,17.8,17.8,17.8,17.8-8,17.8-17.8-8-17.8-17.8-17.8ZM92,133c-7.1,0-12.8-5.7-12.8-12.8s5.7-12.8,12.8-12.8,12.8,5.7,12.8,12.8-5.7,12.8-12.8,12.8Z"/>
      <circle class="cls-2" cx="92" cy="120.2" r="5.8"/>
      <circle class="cls-2" cx="148.6" cy="120.2" r="5.8"/>
    </g>
  </g>
</svg>