<?xml version="1.0" encoding="UTF-8"?>
<svg id="Ebene_2" data-name="Ebene 2" xmlns="http://www.w3.org/2000/svg" viewBox="0 0 269.2 397">
  <defs>
    <style>
      .cls-1 {
        fill: #75e08c;
      }

      .cls-2 {
        fill: #212450;
      }

      .cls-3 {
        fill: #c3f4ce;
      }

      .cls-4 {
        fill: #fff8e3;
      }
    </style>
  </defs>
  <g id="Ebene_1-2" data-name="Ebene 1">
    <g>
      <path class="cls-3" d="M253.4,194.7l-1.9,3.4c-22.2,40.7-63,66.6-109,69.3h-.9c0,0-1.8.2-1.8.2v1.8c-.1,0-.2.9-.2.9-2.7,46.1-28.6,86.8-69.3,109l-3.4,1.9-6.9,3.8h75.1c67.3,0,122-54.7,122-122v-75.1l-3.8,6.9Z"/>
      <path class="cls-4" d="M239.7,92.8c-10.9-10.8-25.5-16.8-41-16.8s-.4,0-.6,0c-32.1.4-58.2,27.3-58.2,59.9v41.3c0,2.9-2.4,5.3-5.3,5.3s-5.3-2.4-5.3-5.3v-41.3c0,0,0-.2,0-.3h0c0-.2,0-.4,0-.7h0c0,0,0-.2,0-.2,0,0,0,0,0-.1,0-32.3-26.3-58.6-58.6-58.6s-53.9,21.6-58,50.2l-.2,1.1-.3,2.1h2.2c0,.1,1.1.2,1.1.2,5.6.4,11.3,1.1,16.8,2.2h.5c0,.1,1.1.3,1.1.3l.8-.8.4-.4c1-1,2.3-1.6,3.8-1.6,2.3,0,4.4,1.6,5.1,3.8v.5c.1,0,.5,1,.5,1l1,.3.5.2c13.9,4.3,27,10.8,38.9,19.4l.7.5,1.3,1,1.2-1.1.6-.5c5.6-5.1,8.9-12.3,8.9-19.8s2.4-5.3,5.3-5.3,5.3,2.4,5.3,5.3c0,9.8-3.8,19.1-10.7,26.1l-.7.7-1.4,1.5,1.5,1.4.8.7c25.1,23.4,40.1,55,42.3,89.1v1c0,0,.2,2,.2,2h2c0-.1,1-.2,1-.2,64.1-4.3,114.3-58,114.3-122.2s-6.2-30.7-17.4-41.8ZM166.5,129.3c2.9,0,5.3,2.4,5.3,5.3,0,14.7,12,26.7,26.7,26.7s26.7-12,26.7-26.7,2.4-5.3,5.3-5.3,5.3,2.4,5.3,5.3c0,20.5-16.7,37.2-37.2,37.2s-37.2-16.7-37.2-37.2,2.4-5.3,5.3-5.3ZM229.7,87.2c.4.3.9.6,1.3.9-.4-.3-.8-.6-1.3-.9ZM231.9,88.8c.4.3.9.7,1.3,1-.4-.3-.9-.7-1.3-1ZM234.1,90.5c.5.4.9.8,1.4,1.2-.5-.4-.9-.8-1.4-1.2ZM225,84.4c.4.2.9.5,1.3.7-.4-.2-.9-.5-1.3-.7ZM227.4,85.7c.4.3.9.5,1.3.8-.4-.3-.8-.5-1.3-.8ZM222.5,83.2c.4.2.9.4,1.3.6-.4-.2-.9-.4-1.3-.6ZM214.8,80.3c.5.1.9.3,1.4.4-.5-.1-.9-.3-1.4-.4ZM217.4,81.1c.5.2.9.3,1.3.5-.4-.2-.9-.3-1.3-.5ZM220,82.1c.4.2.9.4,1.3.6-.4-.2-.9-.4-1.3-.6ZM236.3,92.3c.7.6,1.4,1.3,2,1.9-.7-.7-1.3-1.3-2-1.9ZM198.7,78c.4,0,.8,0,1.1,0-.6,0-1.2,0-1.8,0,.2,0,.4,0,.6,0ZM213.6,79.9c-.5-.1-.9-.3-1.4-.4.5.1.9.2,1.4.4ZM210.9,79.3c-.5-.1-.9-.2-1.4-.3.5,0,.9.2,1.4.3ZM208.2,78.8c-.5,0-.9-.2-1.4-.2.5,0,.9.2,1.4.2ZM205.4,78.4c-.5,0-1-.1-1.4-.2.5,0,1,.1,1.4.2ZM202.7,78.1c-.5,0-1,0-1.4,0,.5,0,1,0,1.4,0Z"/>
      <path class="cls-1" d="M128,244.3c-.1-1-.3-2-.5-3v-.2s0-.2,0-.2c-.1-.8-.3-1.7-.5-2.5h0s0,0,0,0c0,0,0-.2,0-.2,0-.1,0-.2,0-.3-.2-.8-.3-1.5-.5-2.3,0-.1,0-.3,0-.4,0,0,0-.2,0-.3h0s0,0,0,0c0-.4-.2-.7-.3-1.1,0-.4-.2-.7-.3-1.1h0c0,0,0-.1,0-.1,0-.2-.1-.4-.2-.6h0s0,0,0,0l-.2-.7c-.1-.5-.3-1-.4-1.5v-.3c0,0-.2-.4-.2-.4-.2-.7-.4-1.4-.6-2.1,0-.1,0-.3-.1-.4,0-.1,0-.2,0-.3h0s0,0,0,0c-.2-.7-.4-1.3-.7-2,0-.3-.2-.6-.3-.8l-.4-1-.4-1c0-.3-.2-.5-.3-.8-.3-.7-.5-1.4-.8-2h0s0,0,0,0c0-.1-.1-.3-.2-.4v-.2c-.2-.4-.4-.7-.5-1.1-.1-.3-.3-.7-.4-1h0c0,0,0-.2,0-.2,0-.2-.1-.3-.2-.5-.3-.8-.6-1.5-.9-2.2v-.3c-.1,0-.3-.3-.3-.3-.4-.8-.7-1.5-1-2.2v-.2c-.1,0-.2-.2-.2-.2-.4-.8-.7-1.5-1.1-2.3,0,0,0-.1,0-.2h0c0,0,0-.1,0-.1h0c0,0-.3-.7-.3-.7-.3-.6-.6-1.2-.9-1.7,0,0,0,0,0,0h0s0-.2,0-.2c-12.1-22.3-30.4-40.1-53.1-51.5h-.2c0,0,0-.1,0-.1-10.3-5.1-21.2-8.8-32.5-10.9-.1,0-.3,0-.4,0,0,0-.2,0-.3,0h0s0,0,0,0c-2.6-.5-5.3-.8-7.9-1.1h-.3s-.3,0-.3,0c-1.5-.1-2.7-.3-4-.4h0c0,0-.1,0-.2,0l-3.3-.4v3.4s0,56.5,0,56.5v185.2l3.2-.2c1.6-.1,3.3-.3,5.3-.5.2,0,.3,0,.4,0h0s0,0,0,0c1.8-.2,3.5-.5,5.2-.7h.2s.3,0,.3,0c1.6-.2,3.2-.6,5-.9h0s0,0,0,0c.1,0,.3,0,.4,0h0s0,0,0,0c1.6-.3,3.2-.7,4.8-1.1h0s0,0,0,0c.2,0,.3,0,.5-.1h0s0,0,0,0c1.5-.4,3.1-.8,4.7-1.3.1,0,.2,0,.3,0,.1,0,.3,0,.4-.1,1.6-.5,3.1-1,4.6-1.5h.3c.1-.2.2-.2.4-.2,1.6-.6,3.2-1.2,4.5-1.7.2,0,.3-.1.4-.2,0,0,.2,0,.2-.1,1.6-.6,3-1.3,4.5-1.9l.5-.3c1.5-.7,3-1.4,4.4-2.2h0s0,0,0,0h.2c0-.1.1-.2.2-.2,1.6-.9,3.1-1.6,4.4-2.4h.1c0,0,0,0,0,0h0c1.5-.9,3-1.8,4.3-2.7,0,0,.2,0,.2-.1,3-1.9,5.9-3.9,8.7-6.1h.2c0-.1,0-.1,0-.1,1.4-1,2.7-2.1,4-3.2h0c0,0,0-.1.1-.2,1.2-1,2.5-2.1,3.8-3.3,0,0,.1-.1.2-.2h0s0,0,0,0h0c1.2-1.1,2.4-2.3,3.6-3.5h0c0,0,0-.2,0-.2h0c0,0,0-.1,0-.1,1.1-1.1,2.3-2.3,3.4-3.6h0s0,0,0,0h.1c0-.1.1-.3.1-.3,1.1-1.2,2.2-2.4,3.3-3.7,0,0,0-.1.2-.2h0c0,0,0,0,0,0h0c1.1-1.3,2.1-2.6,3.1-4,0,0,0,0,.1-.1h0c0,0,0-.1,0-.1,1.1-1.5,2.1-2.9,3-4.1,0,0,.1-.2.2-.2,1-1.4,2-2.9,2.9-4.3l.5-.7h0c5.6-9,10-18.7,13.1-28.7l.2-.4v-.3c.4-1.4.8-2.9,1.3-4.5h0c0-.1,0-.5,0-.5.4-1.7.9-3.5,1.2-5.2v-.3c0,0,0,0,0,0,.3-1.6.6-3.3.9-5.1h0s0-.3,0-.3c.3-1.6.5-3.4.8-5.5v-.2s0,0,0,0c.5-4.5.8-9.1.8-13.7s-.4-12.1-1.3-18.1ZM124.5,241.6c0,0,0-.1,0-.2-.1-.7-.2-1.3-.4-2,.1.7.3,1.3.4,2,0,0,0,.1,0,.2ZM123.2,235.4c0,.2.1.4.2.7,0,.3.1.7.2,1,0-.3-.1-.7-.2-1,0-.2-.1-.4-.2-.7-.2-.7-.3-1.4-.5-2.2,0-.1,0-.2,0-.4,0,.1,0,.2,0,.4.2.7.3,1.4.5,2.2ZM120,224.1c0,.2.2.5.2.7.2.7.4,1.3.7,2,0,.2.2.5.2.7.2.7.4,1.4.6,2.1-.2-.7-.4-1.4-.6-2.1,0-.2-.2-.5-.2-.7-.2-.7-.4-1.3-.7-2,0-.2-.2-.5-.2-.7-.2-.5-.4-1-.5-1.5.2.5.4,1,.5,1.5ZM118.2,219.1c0-.1-.1-.3-.2-.4-.1-.3-.3-.7-.4-1,.1.3.3.7.4,1,0,.1.1.3.2.4ZM115.8,213.4c0,.2.2.4.2.5.3.7.6,1.4.9,2.1,0,.1,0,.2.1.3,0-.1,0-.2-.1-.3-.3-.7-.6-1.4-.9-2.1,0-.2-.2-.4-.2-.5-.3-.7-.7-1.4-1-2.1.3.7.7,1.4,1,2.1ZM15.1,143.2c0,0,.1,0,.2,0,0,0-.1,0-.2,0h0ZM31.1,379.4c-.8.2-1.6.3-2.4.5.8-.2,1.6-.3,2.4-.5.2,0,.4,0,.6-.1-.2,0-.4,0-.6.1ZM94.8,343.1c0,0,.2-.2.3-.3.5-.6,1-1.1,1.5-1.7-.5.6-1,1.2-1.5,1.7,0,0-.2.2-.3.3ZM101.7,334.9s0,0,0-.1c.6-.8,1.1-1.6,1.7-2.4-.6.8-1.1,1.6-1.7,2.4,0,0,0,0,0,.1ZM107.8,326.2s0,0,0,0c-.9,1.4-1.9,2.9-2.9,4.3,0,0,0,0,0,0,0,0,0,0,0,0,1-1.4,1.9-2.8,2.9-4.3,0,0,0,0,0,0,1.4-2.2,2.8-4.5,4-6.8-1.3,2.3-2.6,4.6-4,6.8ZM123.8,286.7s0,0,0,.1c-.4,1.7-.8,3.5-1.2,5.2.4-1.7.8-3.4,1.2-5.2,0,0,0,0,0-.1.2-.9.4-1.7.5-2.6-.2.9-.3,1.8-.5,2.6ZM125.5,275.9c.3-2.2.4-4.5.6-6.7-.1,2.2-.3,4.5-.6,6.7Z"/>
      <path class="cls-1" d="M241,76.3l-2.2-3.6c-10.6-17.8-25.6-32.6-43.5-43-18.4-10.7-39.4-16.4-60.8-16.4-42.6,0-82.7,22.9-104.4,59.7l-2.2,3.7-1.6,2.7,2.7-1.7,3.6-2.3c11.4-7.3,24.5-11.2,38.1-11.2,26.4,0,50.4,14.6,62.6,38.1l.9,1.7.7,1.3.7-1.3.9-1.7c12.2-23.2,35.8-37.9,61.6-38.2h.9c13.4,0,26.4,3.8,37.6,10.9l3.6,2.3,2.7,1.7-1.6-2.7Z"/>
      <path class="cls-2" d="M134.6,0C60.4,0,0,60.4,0,134.6v255.6c0,3.7,3,6.8,6.8,6.8h128.3c73.9,0,134.1-60.1,134.1-134.1v-128.3C269.2,60.4,208.8,0,134.6,0ZM62.3,369.9c-1.5.8-2.9,1.5-4.4,2.2l-.5.3c-1.4.7-2.9,1.3-4.4,1.9l-.6.3c-1.2.5-2.8,1.1-4.5,1.7l-.7.2c-1.5.5-3,1-4.5,1.5-.1,0-.2,0-.4.1h-.3c-1.6.6-3.1,1-4.6,1.4-.2,0-.4.1-.6.2-1.6.4-3.2.8-4.8,1.1-.2,0-.4,0-.6.1-1.8.4-3.4.7-5,.9h-.5c-1.7.3-3.4.6-5.1.8-.1,0-.3,0-.4,0-2.1.2-3.8.4-5.3.5h-1.6c0,.1,0-241.7,0-241.7l1.7.2c.1,0,.2,0,.3,0h0c1.3,0,2.6.2,3.9.3h.6c2.5.4,5.1.7,7.8,1.2h.3c.1,0,.3.1.4.1,11.1,2,22,5.6,32.1,10.7h.2c22.4,11.3,40.5,28.9,52.4,51v.2c.4.5.7,1.1,1,1.7l.5,1.1c.4.7.7,1.5,1.1,2.2l.2.4c.4.7.7,1.5,1,2.2l.2.5c.3.7.6,1.4.9,2.1,0,.2.2.4.2.5l.9,2.3c0,.1.1.3.2.4.3.7.5,1.4.8,2.1,0,.2.2.5.3.7l.7,2c0,.3.2.5.3.8.2.6.4,1.3.7,2l.2.8c.2.7.4,1.4.6,2.1l.2.7c.1.5.3.9.4,1.4l.2.7c0,.3.1.5.2.7l.7,2.9c.2.8.3,1.5.5,2.3v.5c.3.9.5,1.7.6,2.6v.4c.2,1,.4,2,.6,3,.9,5.9,1.3,11.9,1.3,17.9s-.3,9.1-.8,13.6v.2c-.3,2-.5,3.8-.8,5.4h0c-.3,2-.6,3.8-1,5.4v.2c-.4,1.8-.8,3.5-1.2,5.2v.3c-.5,1.8-1,3.4-1.4,4.8h0c0,.1-.1.3-.1.3-3.1,10.1-7.6,19.8-13.2,28.8h0s-.2.4-.2.4c-.9,1.4-1.9,2.9-2.9,4.3,0,0-.1.2-.2.2-.9,1.2-1.8,2.6-3,4.1h0c0,.2,0,.2-.1.3-1,1.3-2,2.6-3.1,3.9l-.3.3c-1.1,1.3-2.2,2.5-3.2,3.7l-.2.3c-1.2,1.3-2.3,2.5-3.4,3.6h0c0,.1,0,.2-.1.2h0c-1.3,1.3-2.4,2.4-3.6,3.5l-.3.3c-1.3,1.2-2.5,2.3-3.7,3.3l-.2.2c-1.3,1.1-2.6,2.2-4,3.2h-.1c-2.7,2.2-5.6,4.2-8.5,6.1l-.3.3h-.2c-1.3.8-2.6,1.6-4,2.5l-.3.2c-1.3.8-2.7,1.5-4.4,2.4l-.4.2ZM255.6,262.9c0,66.4-54.1,120.5-120.5,120.5h-69.2l5.2-2.8c41.1-22.5,67.3-63.7,70-110.3v-1.3c0,0,1.4,0,1.4,0,46.6-2.7,87.8-28.9,110.3-70l2.8-5.2v69.2ZM142.7,255.3h-1.5c0,0,0-1.4,0-1.4-2.1-34.5-17.3-66.4-42.7-90.1l-1.1-1,1.1-1.1c7.2-7.3,11.1-16.9,11.1-27.1s-3-6.8-6.8-6.8-6.8,3-6.8,6.8c0,7.1-3,13.9-8.4,18.7l-.9.8-1-.7c-12-8.7-25.3-15.3-39.4-19.7l-.8-.2-.2-.8c-.8-2.9-3.5-4.9-6.5-4.9s-3.6.7-4.9,2.1l-.6.6-.8-.2c-5.6-1.1-11.3-1.8-17-2.2h-1.6c0-.1.2-1.7.2-1.7,4-27.9,28.3-48.9,56.5-48.9s57.1,25.6,57.1,57.1,0,.2,0,.3h0c0,.3,0,.5,0,.6,0,.1,0,.2,0,.4v41.3c0,3.7,3,6.8,6.8,6.8s6.8-3,6.8-6.8v-41.3c0-31.8,25.4-58,56.7-58.4.2,0,.4,0,.7,0,15.1,0,29.2,5.8,39.9,16.4,10.9,10.8,17,25.3,17,40.8,0,63.5-49.6,116.5-112.9,120.8ZM241.9,78.3l-5.3-3.4c-11.2-7.2-24.3-11-37.7-11h-.9c-25.8.3-49.5,15-61.8,38.3l-1.3,2.5-1.3-2.5c-12.2-23.6-36.3-38.3-62.8-38.3s-26.8,3.9-38.2,11.3l-5.3,3.5,3.2-5.5C52.1,36.4,92,13.6,134.6,13.6s42.3,5.7,60.7,16.3c17.8,10.4,32.8,25.2,43.4,42.9l3.2,5.4Z"/>
      <path class="cls-2" d="M230.5,126.3c4.6,0,8.3,3.7,8.3,8.3,0,22.2-18,40.2-40.2,40.2s-40.2-18-40.2-40.2,3.7-8.3,8.3-8.3,8.3,3.7,8.3,8.3c0,13.1,10.6,23.7,23.7,23.7s23.7-10.6,23.7-23.7,3.7-8.3,8.3-8.3Z"/>
    </g>
  </g>
</svg>