<?xml version="1.0" encoding="UTF-8"?>
<svg id="Ebene_2" data-name="Ebene 2" xmlns="http://www.w3.org/2000/svg" viewBox="0 0 269.2 397">
  <defs>
    <style>
      .cls-1 {
        fill: #212450;
      }

      .cls-2 {
        fill: #c8f3d1;
      }

      .cls-3 {
        fill: #65e07f;
      }

      .cls-4 {
        fill: #fff8e3;
      }
    </style>
  </defs>
  <g id="Ebene_1-2" data-name="Ebene 1">
    <g>
      <path class="cls-4" d="M134.2,135c.9-34.6,28.7-63.1,63.4-63.5,35.1-.4,63.5,27.5,64.4,62.3,0,.5,0,1.1,0,1.6,0,70.6-57.2,127.8-127.8,127.8S6.6,206.2,6.4,135.8c.2-34.9,28.1-63.9,63-64.4,35.6-.5,64.5,28.1,64.8,63.5h0Z"/>
      <path class="cls-3" d="M134.6,6.8c70.6,0,127.8,57.2,127.8,127.8v.3c-.2-34.8-27.9-63.7-62.7-64.2-35.7-.5-65.1,28.3-65.1,63.9,0-35.6-29.1-64.4-64.8-63.9-35,.5-62.8,29.5-63,64.4,0-.2,0-.3,0-.5C6.8,64,64,6.8,134.6,6.8Z"/>
      <path class="cls-2" d="M134.6,262.4c70.5,0,127.6-57,127.8-127.5v128.1c0,70.3-57,127.2-127.2,127.2H7.4c70.5,0,127.6-57.3,127.2-127.8Z"/>
      <path class="cls-3" d="M134.6,262.4c.3,70.5-56.7,127.8-127.2,127.8h-.6v-254.7c0-.2,0-.3,0-.5.2,70.4,57.4,127.3,127.8,127.3Z"/>
      <g>
        <path class="cls-1" d="M230,142.1c3.7,0,6.8-3,6.8-6.8,0-21.4-17.4-38.7-38.7-38.7s-38.7,17.4-38.7,38.7,3,6.8,6.8,6.8,6.8-3,6.8-6.8c0-13.9,11.3-25.2,25.2-25.2s25.2,11.3,25.2,25.2,3,6.8,6.8,6.8Z"/>
        <path class="cls-1" d="M70.3,96.6c-21.4,0-38.7,17.4-38.7,38.7s3,6.8,6.8,6.8,6.8-3,6.8-6.8c0-13.9,11.3-25.2,25.2-25.2s25.2,11.3,25.2,25.2,3,6.8,6.8,6.8,6.8-3,6.8-6.8c0-21.4-17.4-38.7-38.7-38.7Z"/>
        <path class="cls-1" d="M134.6,0C60.4,0,0,60.4,0,134.6s0,.3,0,.5c0,.2,0,.3,0,.5v254.7c0,3.7,3,6.8,6.8,6.8h128.4c73.9,0,134-60.1,134-134v-128.1h0v-.3C269.2,60.4,208.8,0,134.6,0ZM134.6,13.6c46.8,0,87.5,26.7,107.6,65.7-11.7-9.4-26.5-15.1-42.4-15.4-.3,0-.7,0-1,0-18.8,0-36.5,7.3-49.9,20.5-6,5.9-10.8,12.6-14.3,19.9-3.5-7.4-8.3-14.2-14.3-20.1-13.3-13.1-30.9-20.4-49.7-20.4s-.6,0-.9,0c-16.2.2-31.1,6.1-42.9,15.7C46.9,40.4,87.7,13.6,134.6,13.6ZM13.6,193.4c20.9,42.9,64,73.1,114.1,75.7-1.5,29.8-13.7,57.6-34.9,78.9-21.3,21.4-49.2,33.8-79.2,35.3v-189.9ZM134.6,255.6c-66.1,0-120.2-53.5-121-119.5h0v-.6s0,0,0,0,0,0,0,0v-.4c.2-31.3,25.5-57.2,56.4-57.6,15.5-.2,30,5.7,40.9,16.5,11,10.8,17,25.3,17,40.7v42.6c0,3.7,3,6.8,6.8,6.8s6.8-3,6.8-6.8v-42.6c0-15.3,6-29.7,17-40.5,11-10.9,25.7-16.7,41.2-16.6,30.7.4,55.8,26.2,56,57.4-.2,66.6-54.5,120.7-121,120.7ZM135.2,383.4h-68.9c13.2-6.5,25.4-15.2,36.1-25.9,23.8-23.9,37.4-55.1,38.9-88.5,50.3-2.5,93.4-32.7,114.4-75.6v69.6c0,66.4-54,120.4-120.4,120.4Z"/>
      </g>
    </g>
  </g>
</svg>