<?xml version="1.0" encoding="utf-8"?>
<!-- Generator: Adobe Illustrator 28.0.0, SVG Export Plug-In . SVG Version: 6.00 Build 0)  -->
<svg version="1.1" id="Ebene_2" xmlns="http://www.w3.org/2000/svg" xmlns:xlink="http://www.w3.org/1999/xlink" x="0px" y="0px"
	 viewBox="0 0 269.2 397" style="enable-background:new 0 0 269.2 397;" xml:space="preserve">
<style type="text/css">
	.st0{fill:#C3F4CE;}
	.st1{fill:#FFF8E3;}
	.st2{fill:#75E08C;}
	.st3{fill:#212450;}
</style>
<g id="Ebene_1-2">
	<g>
		<path class="st0" d="M253.4,194.7l-1.9,3.4c-22.2,40.7-63,66.6-109,69.3h-0.9l-1.8,0.2v1.8c-0.1,0-0.2,0.9-0.2,0.9
			c-2.7,46.1-28.6,86.8-69.3,109l-3.4,1.9L60,385h75.1c67.3,0,122-54.7,122-122v-75.1L253.4,194.7L253.4,194.7z"/>
		<path class="st1" d="M239.7,92.8C228.8,82,214.2,76,198.7,76s-0.4,0-0.6,0c-32.1,0.4-58.2,27.3-58.2,59.9v41.3
			c0,2.9-2.4,5.3-5.3,5.3s-5.3-2.4-5.3-5.3v-41.3c0,0,0-0.2,0-0.3l0,0c0-0.2,0-0.4,0-0.7l0,0v-0.2c0,0,0,0,0-0.1
			c0-32.3-26.3-58.6-58.6-58.6s-53.9,21.6-58,50.2l-0.2,1.1l-0.3,2.1h2.2c0,0.1,1.1,0.2,1.1,0.2c5.6,0.4,11.3,1.1,16.8,2.2h0.5
			c0,0.1,1.1,0.3,1.1,0.3l0.8-0.8l0.4-0.4c1-1,2.3-1.6,3.8-1.6c2.3,0,4.4,1.6,5.1,3.8v0.5c0.1,0,0.5,1,0.5,1l1,0.3l0.5,0.2
			c13.9,4.3,27,10.8,38.9,19.4l0.7,0.5l1.3,1l1.2-1.1l0.6-0.5c5.6-5.1,8.9-12.3,8.9-19.8s2.4-5.3,5.3-5.3s5.3,2.4,5.3,5.3
			c0,9.8-3.8,19.1-10.7,26.1l-0.7,0.7l-1.4,1.5l1.5,1.4l0.8,0.7c25.1,23.4,40.1,55,42.3,89.1v1l0.2,2h2c0-0.1,1-0.2,1-0.2
			c64.1-4.3,114.3-58,114.3-122.2s-6.2-30.7-17.4-41.8L239.7,92.8z M229.7,87.2c0.4,0.3,0.9,0.6,1.3,0.9
			C230.6,87.8,230.2,87.5,229.7,87.2z M231.9,88.8c0.4,0.3,0.9,0.7,1.3,1C232.8,89.5,232.3,89.1,231.9,88.8z M234.1,90.5
			c0.5,0.4,0.9,0.8,1.4,1.2C235,91.3,234.6,90.9,234.1,90.5z M225,84.4c0.4,0.2,0.9,0.5,1.3,0.7C225.9,84.9,225.4,84.6,225,84.4z
			 M227.4,85.7c0.4,0.3,0.9,0.5,1.3,0.8C228.3,86.2,227.9,86,227.4,85.7z M222.5,83.2c0.4,0.2,0.9,0.4,1.3,0.6
			C223.4,83.6,222.9,83.4,222.5,83.2z M214.8,80.3c0.5,0.1,0.9,0.3,1.4,0.4C215.7,80.6,215.3,80.4,214.8,80.3z M217.4,81.1
			c0.5,0.2,0.9,0.3,1.3,0.5C218.3,81.4,217.8,81.3,217.4,81.1z M220,82.1c0.4,0.2,0.9,0.4,1.3,0.6C220.9,82.5,220.4,82.3,220,82.1z
			 M236.3,92.3c0.7,0.6,1.4,1.3,2,1.9C237.6,93.5,237,92.9,236.3,92.3z M198.7,78c0.4,0,0.8,0,1.1,0c-0.6,0-1.2,0-1.8,0
			C198.2,78,198.4,78,198.7,78L198.7,78z M213.6,79.9c-0.5-0.1-0.9-0.3-1.4-0.4C212.7,79.6,213.1,79.7,213.6,79.9z M210.9,79.3
			c-0.5-0.1-0.9-0.2-1.4-0.3C210,79,210.4,79.2,210.9,79.3z M208.2,78.8c-0.5,0-0.9-0.2-1.4-0.2C207.3,78.6,207.7,78.8,208.2,78.8z
			 M205.4,78.4c-0.5,0-1-0.1-1.4-0.2C204.5,78.2,205,78.3,205.4,78.4z M202.7,78.1c-0.5,0-1,0-1.4,0
			C201.8,78.1,202.3,78.1,202.7,78.1z"/>
		<path class="st2" d="M128,244.3c-0.1-1-0.3-2-0.5-3v-0.2v-0.2c-0.1-0.8-0.3-1.7-0.5-2.5l0,0l0,0v-0.2c0-0.1,0-0.2,0-0.3
			c-0.2-0.8-0.3-1.5-0.5-2.3c0-0.1,0-0.3,0-0.4c0,0,0-0.2,0-0.3l0,0l0,0c0-0.4-0.2-0.7-0.3-1.1c0-0.4-0.2-0.7-0.3-1.1l0,0v-0.1
			c0-0.2-0.1-0.4-0.2-0.6l0,0l0,0l-0.2-0.7c-0.1-0.5-0.3-1-0.4-1.5v-0.3l-0.2-0.4c-0.2-0.7-0.4-1.4-0.6-2.1c0-0.1,0-0.3-0.1-0.4
			c0-0.1,0-0.2,0-0.3l0,0l0,0c-0.2-0.7-0.4-1.3-0.7-2c0-0.3-0.2-0.6-0.3-0.8l-0.4-1l-0.4-1c0-0.3-0.2-0.5-0.3-0.8
			c-0.3-0.7-0.5-1.4-0.8-2l0,0l0,0c0-0.1-0.1-0.3-0.2-0.4v-0.2c-0.2-0.4-0.4-0.7-0.5-1.1c-0.1-0.3-0.3-0.7-0.4-1l0,0v-0.2
			c0-0.2-0.1-0.3-0.2-0.5c-0.3-0.8-0.6-1.5-0.9-2.2v-0.3c-0.1,0-0.3-0.3-0.3-0.3c-0.4-0.8-0.7-1.5-1-2.2v-0.2
			c-0.1,0-0.2-0.2-0.2-0.2c-0.4-0.8-0.7-1.5-1.1-2.3c0,0,0-0.1,0-0.2l0,0v-0.1l0,0l-0.3-0.7c-0.3-0.6-0.6-1.2-0.9-1.7l0,0l0,0v-0.2
			c-12.1-22.3-30.4-40.1-53.1-51.5H62v-0.1c-10.3-5.1-21.2-8.8-32.5-10.9c-0.1,0-0.3,0-0.4,0c0,0-0.2,0-0.3,0l0,0l0,0
			c-2.6-0.5-5.3-0.8-7.9-1.1h-0.3h-0.3c-1.5-0.1-2.7-0.3-4-0.4l0,0c0,0-0.1,0-0.2,0l-3.3-0.4v3.4v56.5v185.2l3.2-0.2
			c1.6-0.1,3.3-0.3,5.3-0.5c0.2,0,0.3,0,0.4,0l0,0l0,0c1.8-0.2,3.5-0.5,5.2-0.7h0.2h0.3c1.6-0.2,3.2-0.6,5-0.9l0,0l0,0
			c0.1,0,0.3,0,0.4,0l0,0l0,0c1.6-0.3,3.2-0.7,4.8-1.1l0,0l0,0c0.2,0,0.3,0,0.5-0.1l0,0l0,0c1.5-0.4,3.1-0.8,4.7-1.3
			c0.1,0,0.2,0,0.3,0s0.3,0,0.4-0.1c1.6-0.5,3.1-1,4.6-1.5h0.3c0.1-0.2,0.2-0.2,0.4-0.2c1.6-0.6,3.2-1.2,4.5-1.7
			c0.2,0,0.3-0.1,0.4-0.2c0,0,0.2,0,0.2-0.1c1.6-0.6,3-1.3,4.5-1.9l0.5-0.3c1.5-0.7,3-1.4,4.4-2.2l0,0l0,0h0.2
			c0-0.1,0.1-0.2,0.2-0.2c1.6-0.9,3.1-1.6,4.4-2.4h0.1l0,0l0,0c1.5-0.9,3-1.8,4.3-2.7c0,0,0.2,0,0.2-0.1c3-1.9,5.9-3.9,8.7-6.1h0.2
			c0-0.1,0-0.1,0-0.1c1.4-1,2.7-2.1,4-3.2l0,0c0,0,0-0.1,0.1-0.2c1.2-1,2.5-2.1,3.8-3.3c0,0,0.1-0.1,0.2-0.2l0,0l0,0l0,0
			c1.2-1.1,2.4-2.3,3.6-3.5l0,0v-0.2l0,0v-0.1c1.1-1.1,2.3-2.3,3.4-3.6l0,0l0,0h0.1c0-0.1,0.1-0.3,0.1-0.3c1.1-1.2,2.2-2.4,3.3-3.7
			c0,0,0-0.1,0.2-0.2l0,0l0,0l0,0c1.1-1.3,2.1-2.6,3.1-4c0,0,0,0,0.1-0.1l0,0v-0.1c1.1-1.5,2.1-2.9,3-4.1c0,0,0.1-0.2,0.2-0.2
			c1-1.4,2-2.9,2.9-4.3l0.5-0.7l0,0c5.6-9,10-18.7,13.1-28.7l0.2-0.4v-0.3c0.4-1.4,0.8-2.9,1.3-4.5l0,0c0-0.1,0-0.5,0-0.5
			c0.4-1.7,0.9-3.5,1.2-5.2v-0.3l0,0c0.3-1.6,0.6-3.3,0.9-5.1l0,0v-0.3c0.3-1.6,0.5-3.4,0.8-5.5v-0.2l0,0c0.5-4.5,0.8-9.1,0.8-13.7
			s-0.4-12.1-1.3-18.1L128,244.3z M124.5,241.6c0,0,0-0.1,0-0.2c-0.1-0.7-0.2-1.3-0.4-2c0.1,0.7,0.3,1.3,0.4,2
			C124.5,241.4,124.5,241.5,124.5,241.6z M123.2,235.4c0,0.2,0.1,0.4,0.2,0.7c0,0.3,0.1,0.7,0.2,1c0-0.3-0.1-0.7-0.2-1
			C123.4,235.9,123.3,235.7,123.2,235.4c-0.2-0.7-0.3-1.4-0.5-2.2c0-0.1,0-0.2,0-0.4c0,0.1,0,0.2,0,0.4
			C122.9,233.9,123,234.6,123.2,235.4z M120,224.1c0,0.2,0.2,0.5,0.2,0.7c0.2,0.7,0.4,1.3,0.7,2c0,0.2,0.2,0.5,0.2,0.7
			c0.2,0.7,0.4,1.4,0.6,2.1c-0.2-0.7-0.4-1.4-0.6-2.1c0-0.2-0.2-0.5-0.2-0.7c-0.2-0.7-0.4-1.3-0.7-2
			C120.2,224.6,120,224.3,120,224.1c-0.2-0.5-0.4-1-0.5-1.5C119.7,223.1,119.9,223.6,120,224.1z M118.2,219.1c0-0.1-0.1-0.3-0.2-0.4
			c-0.1-0.3-0.3-0.7-0.4-1c0.1,0.3,0.3,0.7,0.4,1C118,218.8,118.1,219,118.2,219.1z M115.8,213.4c0,0.2,0.2,0.4,0.2,0.5
			c0.3,0.7,0.6,1.4,0.9,2.1c0,0.1,0,0.2,0.1,0.3c0-0.1,0-0.2-0.1-0.3c-0.3-0.7-0.6-1.4-0.9-2.1C116,213.7,115.8,213.5,115.8,213.4
			c-0.3-0.7-0.7-1.4-1-2.1C115.1,212,115.5,212.7,115.8,213.4z M15.1,143.2c0,0,0.1,0,0.2,0C15.3,143.2,15.2,143.2,15.1,143.2
			L15.1,143.2z M31.1,379.4c-0.8,0.2-1.6,0.3-2.4,0.5C29.5,379.7,30.3,379.6,31.1,379.4c0.2,0,0.4,0,0.6-0.1
			C31.5,379.3,31.3,379.3,31.1,379.4z M94.8,343.1c0,0,0.2-0.2,0.3-0.3c0.5-0.6,1-1.1,1.5-1.7c-0.5,0.6-1,1.2-1.5,1.7
			C95.1,342.8,94.9,343,94.8,343.1z M101.7,334.9c0,0,0,0,0-0.1c0.6-0.8,1.1-1.6,1.7-2.4c-0.6,0.8-1.1,1.6-1.7,2.4
			C101.7,334.8,101.7,334.8,101.7,334.9z M107.8,326.2L107.8,326.2c-0.9,1.4-1.9,2.9-2.9,4.3l0,0l0,0
			C105.9,329.1,106.8,327.7,107.8,326.2L107.8,326.2c1.4-2.2,2.8-4.5,4-6.8C110.5,321.7,109.2,324,107.8,326.2z M123.8,286.7
			c0,0,0,0,0,0.1c-0.4,1.7-0.8,3.5-1.2,5.2c0.4-1.7,0.8-3.4,1.2-5.2C123.8,286.8,123.8,286.8,123.8,286.7c0.2-0.9,0.4-1.7,0.5-2.6
			C124.1,285,124,285.9,123.8,286.7z M125.5,275.9c0.3-2.2,0.4-4.5,0.6-6.7C126,271.4,125.8,273.7,125.5,275.9z"/>
		<path class="st2" d="M241,76.3l-2.2-3.6c-10.6-17.8-25.6-32.6-43.5-43c-18.4-10.7-39.4-16.4-60.8-16.4
			C91.9,13.3,51.8,36.2,30.1,73l-2.2,3.7l-1.6,2.7l2.7-1.7l3.6-2.3C44,68.1,57.1,64.2,70.7,64.2c26.4,0,50.4,14.6,62.6,38.1l0.9,1.7
			l0.7,1.3l0.7-1.3l0.9-1.7c12.2-23.2,35.8-37.9,61.6-38.2h0.9c13.4,0,26.4,3.8,37.6,10.9l3.6,2.3l2.7,1.7l-1.6-2.7L241,76.3z"/>
		<path class="st3" d="M230.5,126.3c4.6,0,8.3,3.7,8.3,8.3c0,22.2-18,40.2-40.2,40.2s-40.2-16.6-40.2-38.8c0-6.8,3.7-9.7,8.3-9.7
			s8.3,3.7,8.3,8.3c0,13.1,10.6,23.7,23.7,23.7s23.7-10.6,23.7-23.7c0-4.6,3.7-8.3,8.3-8.3H230.5z"/>
		<path class="st3" d="M134.6,0C60.4,0,0,60.4,0,134.6v255.6c0,3.7,3,6.8,6.8,6.8h128.3c73.9,0,134.1-60.1,134.1-134.1V134.6
			C269.2,60.4,208.8,0,134.6,0z M62.3,369.9c-1.5,0.8-2.9,1.5-4.4,2.2l-0.5,0.3c-1.4,0.7-2.9,1.3-4.4,1.9l-0.6,0.3
			c-1.2,0.5-2.8,1.1-4.5,1.7l-0.7,0.2c-1.5,0.5-3,1-4.5,1.5c-0.1,0-0.2,0-0.4,0.1H42c-1.6,0.6-3.1,1-4.6,1.4c-0.2,0-0.4,0.1-0.6,0.2
			c-1.6,0.4-3.2,0.8-4.8,1.1c-0.2,0-0.4,0-0.6,0.1c-1.8,0.4-3.4,0.7-5,0.9h-0.5c-1.7,0.3-3.4,0.6-5.1,0.8c-0.1,0-0.3,0-0.4,0
			c-2.1,0.2-3.8,0.4-5.3,0.5h-1.6c0,0.1,0-241.7,0-241.7l1.7,0.2c0.1,0,0.2,0,0.3,0l0,0c1.3,0,2.6,0.2,3.9,0.3H20
			c2.5,0.4,5.1,0.7,7.8,1.2h0.3c0.1,0,0.3,0.1,0.4,0.1c11.1,2,22,5.6,32.1,10.7h0.2c22.4,11.3,40.5,28.9,52.4,51v0.2
			c0.4,0.5,0.7,1.1,1,1.7l0.5,1.1c0.4,0.7,0.7,1.5,1.1,2.2l0.2,0.4c0.4,0.7,0.7,1.5,1,2.2l0.2,0.5c0.3,0.7,0.6,1.4,0.9,2.1
			c0,0.2,0.2,0.4,0.2,0.5l0.9,2.3c0,0.1,0.1,0.3,0.2,0.4c0.3,0.7,0.5,1.4,0.8,2.1c0,0.2,0.2,0.5,0.3,0.7l0.7,2
			c0,0.3,0.2,0.5,0.3,0.8c0.2,0.6,0.4,1.3,0.7,2l0.2,0.8c0.2,0.7,0.4,1.4,0.6,2.1l0.2,0.7c0.1,0.5,0.3,0.9,0.4,1.4l0.2,0.7
			c0,0.3,0.1,0.5,0.2,0.7l0.7,2.9c0.2,0.8,0.3,1.5,0.5,2.3v0.5c0.3,0.9,0.5,1.7,0.6,2.6v0.4c0.2,1,0.4,2,0.6,3
			c0.9,5.9,1.3,11.9,1.3,17.9s-0.3,9.1-0.8,13.6v0.2c-0.3,2-0.5,3.8-0.8,5.4l0,0c-0.3,2-0.6,3.8-1,5.4v0.2c-0.4,1.8-0.8,3.5-1.2,5.2
			v0.3c-0.5,1.8-1,3.4-1.4,4.8l0,0c0,0.1-0.1,0.3-0.1,0.3c-3.1,10.1-7.6,19.8-13.2,28.8l0,0l-0.2,0.4c-0.9,1.4-1.9,2.9-2.9,4.3
			c0,0-0.1,0.2-0.2,0.2c-0.9,1.2-1.8,2.6-3,4.1l0,0c0,0.2,0,0.2-0.1,0.3c-1,1.3-2,2.6-3.1,3.9l-0.3,0.3c-1.1,1.3-2.2,2.5-3.2,3.7
			l-0.2,0.3c-1.2,1.3-2.3,2.5-3.4,3.6l0,0c0,0.1,0,0.2-0.1,0.2l0,0c-1.3,1.3-2.4,2.4-3.6,3.5l-0.3,0.3c-1.3,1.2-2.5,2.3-3.7,3.3
			l-0.2,0.2c-1.3,1.1-2.6,2.2-4,3.2h-0.1c-2.7,2.2-5.6,4.2-8.5,6.1l-0.3,0.3h-0.2c-1.3,0.8-2.6,1.6-4,2.5l-0.3,0.2
			c-1.3,0.8-2.7,1.5-4.4,2.4l-0.4,0.2L62.3,369.9z M255.6,262.9c0,66.4-54.1,120.5-120.5,120.5H65.9l5.2-2.8
			c41.1-22.5,67.3-63.7,70-110.3V269h1.4c46.6-2.7,87.8-28.9,110.3-70l2.8-5.2V263V262.9z M142.7,255.3h-1.5v-1.4
			c-2.1-34.5-17.3-66.4-42.7-90.1l-1.1-1l1.1-1.1c8.2-6.4,18.3-32.3,4.3-33.9c-3.8-0.4-6.8,3-6.8,6.8c0,7.1-3,13.9-8.4,18.7
			l-0.9,0.8l-1-0.7c-12-8.7-25.3-15.3-39.4-19.7l-0.8-0.2l-0.2-0.8c-0.8-2.9-3.5-4.9-6.5-4.9s-3.6,0.7-4.9,2.1l-0.6,0.6l-0.8-0.2
			c-5.6-1.1-11.3-1.8-17-2.2h-1.6c0-0.1,0.2-1.7,0.2-1.7c4-27.9,28.3-48.9,56.5-48.9s57.1,25.6,57.1,57.1s0,0.2,0,0.3l0,0
			c0,0.3,0,0.5,0,0.6s0,0.2,0,0.4v41.3c0,3.7,3,6.8,6.8,6.8s6.8-3,6.8-6.8v-41.3c0-31.8,25.4-58,56.7-58.4c0.2,0,0.4,0,0.7,0
			c15.1,0,29.2,5.8,39.9,16.4c10.9,10.8,17,25.3,17,40.8c0,63.5-49.6,116.5-112.9,120.8L142.7,255.3z M241.9,78.3l-5.3-3.4
			c-11.2-7.2-24.3-11-37.7-11H198c-25.8,0.3-49.5,15-61.8,38.3l-1.3,2.5l-1.3-2.5c-12.2-23.6-36.3-38.3-62.8-38.3
			S27.3,78.7,27.3,78.7l3.2-5.5C52.1,36.4,92,13.6,134.6,13.6c50.4,0,91.7,35.9,104.1,59.2L241.9,78.3L241.9,78.3z"/>
	</g>
</g>
</svg>
