<?xml version="1.0" encoding="UTF-8"?>
<svg id="Ebene_2" data-name="Ebene 2" xmlns="http://www.w3.org/2000/svg" viewBox="0 0 269.2 397">
  <defs>
    <style>
      .cls-1 {
        fill: #69a6d6;
      }

      .cls-2 {
        fill: #212450;
      }

      .cls-3 {
        fill: #c8f3d1;
      }

      .cls-4 {
        fill: #65e07f;
      }

      .cls-5 {
        fill: #fff8e3;
      }
    </style>
  </defs>
  <g id="Ebene_1-2" data-name="Ebene 1">
    <g>
      <path class="cls-4" d="M134.6,6.8c70.6,0,127.8,57.2,127.8,127.8v.3c-.2-34.8-27.9-63.7-62.7-64.2-35.7-.5-65.1,28.3-65.1,63.9,0-35.6-29.1-64.4-64.8-63.9-35,.5-62.8,29.5-63,64.4,0-.2,0-.3,0-.5C6.8,64,64,6.8,134.6,6.8Z"/>
      <path class="cls-4" d="M134.6,262.4c.5,70.4-56.4,127.8-126.9,127.8h-1v-254.7c0-.2,0-.3,0-.5.2,70.4,57.4,127.3,127.8,127.3Z"/>
      <path class="cls-5" d="M134.6,134.6c0-35.6,29.4-64.4,65.1-63.9,34.8.5,62.5,29.4,62.7,64.2-.2,70.4-57.3,127.5-127.8,127.5S7,205.4,6.8,135.1c.2-34.9,28.1-63.9,63-64.4,35.7-.5,64.8,28.3,64.8,63.9ZM102.6,134.6c0-17.6-14.3-32-32-32s-32,14.3-32,32,14.3,32,32,32,32-14.3,32-32Z"/>
      <path class="cls-3" d="M255.4,305c-17.2,49.6-64.4,85.2-119.8,85.2H7.7c70.4,0,127.4-57.4,126.9-127.8,70.5,0,127.6-57.1,127.8-127.5v128.4c0,14.6-2.5,28.6-7,41.6Z"/>
      <g>
        <path class="cls-2" d="M134.6,0C60.4,0,0,60.4,0,134.6s0,.3,0,.4c0,.2,0,.4,0,.5v254.7c0,3.7,3,6.8,6.8,6.8h128.8c56.9,0,107.6-36.1,126.3-89.8,4.9-14.1,7.4-28.8,7.4-43.9v-128.5h0v-.3C269.2,60.4,208.8,0,134.6,0ZM134.6,13.6c46.8,0,87.5,26.7,107.6,65.7-11.7-9.4-26.4-15.1-42.4-15.4-.3,0-.7,0-1,0-18.8,0-36.5,7.3-49.9,20.5-6,5.9-10.8,12.6-14.3,20-3.5-7.4-8.3-14.2-14.3-20.1-13.3-13.2-31-20.4-49.7-20.4s-.6,0-.9,0c-16.1.2-31.1,6.1-42.9,15.7C46.9,40.4,87.7,13.6,134.6,13.6ZM13.6,193.4c20.9,42.9,64,73.1,114.1,75.7-1.4,29.8-13.5,57.6-34.7,78.9-21.3,21.5-49.3,33.9-79.4,35.4v-189.9ZM134.6,255.6c-66.5,0-120.8-54.1-121-120.5h0c.2-31.4,25.5-57.2,56.3-57.6,15.5-.1,30,5.7,40.9,16.5,11,10.8,17,25.3,17,40.7v42.6c0,3.7,3,6.8,6.8,6.8s6.8-3,6.8-6.8v-42.6c0-15.3,6-29.7,17-40.5,10.8-10.7,25.2-16.6,40.4-16.6s.6,0,.8,0c30.7.4,55.8,26.2,56,57.4-.2,66.6-54.5,120.7-121,120.7ZM255.6,263.4c0,13.5-2.2,26.8-6.6,39.4-16.8,48.2-62.3,80.6-113.4,80.6h-69c13.2-6.5,25.4-15.2,36-25.9,23.7-23.9,37.3-55.1,38.7-88.5,50.2-2.5,93.4-32.7,114.4-75.6v70Z"/>
        <path class="cls-2" d="M237.2,134.5c0-3.7-3-6.8-6.8-6.8h-63.9c-3.7,0-6.8,3-6.8,6.8s3,6.8,6.8,6.8h63.9c3.7,0,6.8-3,6.8-6.8Z"/>
      </g>
      <g>
        <path class="cls-1" d="M69.4,102.6c17.8,0,32.4,14.4,32.4,32.4s-14.4,32.4-32.4,32.4-32.4-14.4-32.4-32.4,14.4-32.4,32.4-32.4Z"/>
        <path class="cls-2" d="M69.4,94.4c-22.4,0-40.7,18.3-40.7,40.7s18.3,40.7,40.7,40.7,40.7-18.3,40.7-40.7-18.3-40.7-40.7-40.7ZM69.4,163.9c-15.8,0-28.8-12.8-28.8-28.8s12.8-28.8,28.8-28.8,28.8,12.8,28.8,28.8-12.8,28.8-28.8,28.8Z"/>
        <circle class="cls-2" cx="69.4" cy="135.1" r="13.2"/>
      </g>
    </g>
  </g>
</svg>