<?xml version="1.0" encoding="UTF-8"?>
<svg id="Ebene_2" data-name="Ebene 2" xmlns="http://www.w3.org/2000/svg" viewBox="0 0 394.3 397">
  <defs>
    <style>
      .cls-1 {
        fill: #69a6d6;
      }

      .cls-2 {
        fill: #75e08c;
      }

      .cls-3 {
        fill: #212450;
      }

      .cls-4 {
        fill: #c8f3d1;
      }

      .cls-5 {
        fill: #c3f4ce;
      }

      .cls-6 {
        fill: #65e07f;
      }

      .cls-7 {
        fill: #fff8e3;
      }
    </style>
  </defs>
  <g id="Ebene_1-2" data-name="Ebene 1">
    <g>
      <path class="cls-1" d="M361.9,171.1l-2.2.7c-1.7.6-3.4,1.2-5,1.7-3.5,1.3-6.8,2.5-10.2,3.2-3.4.7-6.9.9-10.7,1-1.7,0-3.4.2-5.1.3l-2.5.2.7,2.4c.4,1.2.8,2.5,1.1,3.7.8,2.8,1.7,5.7,2.7,8.5,3.5,10.5,6.9,21,10.4,31.5,2.4,7.4,4.9,14.8,7.3,22.2,3.7,11.1,7.2,21.9,10.8,32.8.4,1.1,1.1,3.5,3.8,3.5s.7,0,1.1-.1c3.5-.7,7-1.4,10.7-2.2l5-1-18-108.4Z"/>
      <g>
        <path class="cls-6" d="M132,6.8c70.6,0,127.8,57.2,127.8,127.8v.3c-.2-34.8-27.9-63.7-62.7-64.2-35.7-.5-65.1,28.3-65.1,63.9,0-35.6-29.1-64.4-64.8-63.9-35,.5-62.8,29.5-63,64.4,0-.2,0-.3,0-.5C4.2,64,61.4,6.8,132,6.8Z"/>
        <path class="cls-6" d="M132,262.4c.5,70.4-56.4,127.8-126.9,127.8h-1v-254.7c0-.2,0-.3,0-.5.2,70.4,57.4,127.3,127.8,127.3Z"/>
        <path class="cls-7" d="M132,134.6c0-35.6,29.4-64.4,65.1-63.9,34.8.5,62.5,29.4,62.7,64.2-.2,70.4-57.3,127.5-127.8,127.5S4.4,205.4,4.2,135.1c.2-34.9,28.1-63.9,63-64.4,35.7-.5,64.8,28.3,64.8,63.9Z"/>
        <path class="cls-4" d="M252.8,305c-17.2,49.6-64.4,85.2-119.8,85.2H5.1c70.4,0,127.4-57.4,126.9-127.8,70.5,0,127.6-57.1,127.8-127.5v128.4c0,14.6-2.5,28.6-7,41.6Z"/>
      </g>
      <path class="cls-3" d="M.3,390.4v1.3c.7,2.3,2.4,4.9,6.2,4.9,13.3,0,26.9,0,40,.2,31.1.2,63.2.4,94.7-.5,39.6-1.2,72.7-18.5,98.6-51.4,7.3-9.3,13.1-19.4,17.4-30.2.6-1.5,1.6-3,4.4-3.1,31.2-.3,59.4-10.5,83.9-30.3.4-.3.8-.6,1.3-1l2.4-1.8,1.6,4.7c.5,1.6,1,3,1.5,4.5.5,1.5,1,3,1.5,4.6l.5,1.6c12-2.4,23.9-4.8,36.2-7.2-.2-1.3-.4-2.5-.6-3.8-.5-3.3-1-6.5-1.5-9.8-.7-4.2-1.4-8.3-2.1-12.5-1.3-7.9-2.7-16.1-4-24.2-.2-1.5,0-3.1.5-4.3,6.3-14.5,9.9-28.5,11-42.9,0-.5.3-.9.5-1.2v-12.8c-1.6-3.7-4.4-5.2-9-5-2.9.1-5.9.1-8.7,0-1.3,0-2.5,0-3.8,0h-1l-.4-1c-1.3-3.5-.9-6.2,1.4-9.1,10.4-13.2,13-28.1,7.9-44.2-7.1-22.5-30.3-36-53.8-31.4-16.5,3.2-28.2,12.3-34.9,27-8.7,19.1-4.4,40.5,11,54.5l4.5,4.1h-39.9v-4.2c0-3.9,0-7.7,0-11.6,0-8.3.1-16.9-.2-25.4-1.4-32.5-13.5-61.5-36.2-86.2-17.7-19.3-39.8-32.3-65.8-38.7-4.8-1.2-9.8-1.8-14.6-2.5-2.3-.3-4.7-.6-7.1-1-.5,0-.9-.3-1.3-.4h0s-17.3,0-17.3,0l-2.3.3c-2.6.4-5.1.8-7.7,1.1-28.5,4.1-53,15.9-72.8,35.2C19.9,58.2,6.3,83.9,1.6,113.1c-.4,2.2-.6,4.5-.8,6.8-.1,1.4-.3,2.7-.5,4.1,0,.6-.4,6.6-.3,6.9.2.8.3,143.6.3,214.1v42.3c0,1,0,2.1,0,3.1ZM380.7,184l-1.6,14.5h-2s-1.3,0-1.3,0l-2.2-14.5h7ZM379.4,279.2l-4.5.9c-3.7.7-7.2,1.5-10.7,2.2-.3,0-.6.1-.9.1-2.3,0-3-2.1-3.4-3.2-3.6-11.1-7.3-22.3-10.8-32.8l-6.1-18.3c-3.9-11.8-7.8-23.6-11.7-35.4-.9-2.8-1.8-5.6-2.6-8.4-.4-1.3-.8-2.6-1.2-3.9l-.6-1.8h1.9c1.7-.3,3.4-.4,5.1-.4,3.7-.2,7.3-.4,10.7-1,3.4-.7,6.8-1.9,10.3-3.2,1.6-.6,3.2-1.2,4.9-1.7l1.7-.6,17.8,107.4ZM300.6,131.2h0c0-9.4,3.6-18.2,10.3-24.8,6.6-6.6,15.4-10.2,24.7-10.2,19.1,0,34.6,15.8,34.5,35.1,0,18.8-15.7,34.1-34.9,34.2h-.1c-9.3,0-17.9-3.6-24.4-10-6.5-6.5-10.1-15.1-10.1-24.3ZM263.6,295.9c.2-1,.4-2.1.6-3.1.5-2.3.9-4.5,1.2-6.7.2-1.4.3-2.8.5-4.2.6-5.3,1.3-10.8,1.4-16.1.2-18.7.1-37.7.1-56,0-7,0-13.9,0-20.9v-4.8h1.4c.3,0,.7-.1,1-.1.7,0,1.4,0,2,0,4.2,0,8.4,0,12.7,0,9.8,0,19.9,0,29.9,0,2.7,0,4.2,1.1,5,3.7,3.6,11.2,7.3,22.4,11,33.5,4.3,13.2,8.7,26.5,13,39.7.5,1.4,0,3.5-1,4.6-8.1,8.5-18.1,15.5-31.6,21.8-12.9,6-27.1,9.6-42.2,10.8-.6,0-1.1,0-1.7,0s-.4,0-.5,0c-.4,0-.7,0-1-.2-.1,0-.3,0-.5-.1l-1.5-.3.3-1.5ZM23.8,382c-1.9.3-3.7.5-5.6.7-.9,0-1.9.2-2.8.3l-1.7.2v-1.7c0-60.3,0-120.3,0-180.3v-4.8s2.7,4,2.7,4c1.2,1.7,2.3,3.4,3.4,5.1,2.4,3.6,4.9,7.4,7.6,10.8,18.7,24.2,43.4,40.6,73.4,48.7,8,2.2,15.4,3.5,22.4,4,.8,0,1.8.2,2.6,1.1.8.9.8,2,.7,2.9-2.2,26.6-12.5,50.4-30.7,70.8-18.8,21.2-43.1,34.1-72.1,38.3ZM253.6,268c-.7,28.1-11.1,53.6-30.8,75.6-23.1,25.9-52.9,39.1-88.6,39.4-7.2,0-14.5,0-21.7,0s-12.1,0-18,0c-6,0-12,0-18,0h-7.3l3.7-2.7c2.1-1.5,4.2-3,6.3-4.5,4.6-3.3,9-6.4,13.2-9.7,7.7-6,14.5-13.1,20.4-21,16.7-22.7,25.6-46.2,27.2-71.8.2-2.9,1.4-4.2,4.4-4.5l1.6-.2c5.2-.5,10.6-1.1,15.7-2.4,38.7-9.8,68.2-31.3,87.6-63.9.3-.4.5-.8.8-1.3l2-3.2,1.2,2.5c0,.1.1.2.1.3.1.3.4.6.4,1.2,0,6.6,0,13.2,0,19.8,0,15.1.2,30.8-.2,46.2ZM31.3,71.8c5.3-9.2,12.3-17.7,22.1-26.7,16.4-15.2,35.5-25,56.9-29.1,33.2-6.3,63.8,0,90.9,18.6,14.2,9.8,25.8,21.9,34.4,36,.3.4.6,1,.7,1.9l.6,3.2-2.8-1.6c-17.6-10.2-36.1-12.8-55-7.7-18.8,5-33.6,16.7-44,34.6l-1.2,2.1-1.3-2c-.2-.3-.4-.6-.6-.8-.3-.5-.6-.9-.9-1.3-11.6-19.1-28.4-30.6-49.7-34.1-15.8-2.6-31.1.1-45.4,8.1-.7.4-2.9,1.2-3.2,1.4l-2.1-1.4.5-1.2ZM27.2,97.7c8.9-10.5,21.6-17.5,35.6-19.5,25-3.6,49.5,10.3,59.5,33.9,3.2,7.6,4.7,15.5,4.5,23.5-.1,4.1,0,8.3,0,12.4,0,1.9,0,3.7,0,5.6s0,4.5,0,6.7c0,5.4,0,11,0,16.5,0,3.8,2.4,6.6,5.9,7,3.5.4,6.6-1.7,7.4-5,.2-.8.2-1.7.2-2.7,0-5.9,0-11.8,0-17.8,0-7.9,0-15.8,0-23.7,0-31.4,25.7-56.9,57.1-56.9h0c22.1,0,42.7,13.7,51.3,34,4.1,9.8,5.6,20.5,4.6,32.6-1.4,16.3-5.9,31.7-13.2,45.8-17.4,33.4-44.5,54.3-80.5,62.2-9.5,2.1-18.8,3.1-27.9,3.1-29,0-55.7-10.7-79.6-32-9.6-8.5-17.5-18.5-23.5-29.7-10-18.7-15.2-38-15.3-57.5,0-14.3,4.8-27.9,13.7-38.4Z"/>
      <path class="cls-2" d="M343.8,260.5c-4.3-13.3-8.7-26.7-13-39.8-3.6-11-7.3-22.3-11-33.5-.7-2-1.8-4.1-5.4-4.1h-.1c-8.1,0-16,0-22.7,0s-5.7,0-8.6,0c-2.9,0-5.7,0-8.6,0h-2.7c-.7,0-1.4,0-2.1,0-.3,0-.6,0-1,0h-1.9v5.4c0,7,0,13.9,0,20.9,0,18.4,0,37.4-.1,56,0,5.3-.7,10.8-1.4,16.1-.2,1.4-.3,2.8-.5,4.1-.3,2.2-.7,4.4-1.2,6.7-.2,1-.4,2.1-.6,3.1l-.4,2,2,.4c.2,0,.3,0,.5,0,.4,0,.7.2,1.2.2h0c.2,0,.4,0,.6,0,.6,0,1.1,0,1.7,0,15.2-1.1,29.5-4.8,42.4-10.8,13.5-6.3,23.6-13.3,31.7-21.9,1.1-1.2,1.6-3.5,1.1-5.1ZM266.4,296.4s0,0,0,0c0,0,0,0-.1,0,0,0,.1,0,.2,0,.2,0,.5,0,.7,0,0,0,0,0-.1,0-.2,0-.4,0-.6,0ZM265.5,296.2c.1,0,.2,0,.3,0,0,0-.2,0-.3,0ZM265.9,296.3c0,0,.1,0,.2,0,0,0-.1,0-.2,0Z"/>
      <path class="cls-5" d="M335.6,95.7h-.1c-9.4,0-18.3,3.7-25,10.3-6.7,6.7-10.4,15.6-10.4,25.1,0,9.4,3.6,18.1,10.2,24.7s15.4,10.2,24.8,10.2h.1c19.5,0,35.4-15.6,35.4-34.7,0-19.6-15.7-35.5-35-35.6ZM332.8,115.2c-.5,0-.7-.1-.7-.9,0-.5.2-.9.3-.9,0,0,.2,0,.3,0,.2,0,.7.5,1,.8-.2,1.1-.5,1-.8,1ZM336.3,106c0-.4.1-.6.1-.6,0,0,.2,0,.3,0,.2,0,.6.3.9.6-.4.3-.8.5-1,.6-.1,0-.2,0-.2,0,0,0-.1-.2-.1-.5ZM327.3,107.7s-.2,0-.3,0c-.2,0-.6-.4-.8-.6.1-.2.3-.4.5-.6.3.3.6.7.6.9,0,0,0,.2,0,.3ZM342.2,111.6c0-.2,0-.4.1-.5,0,0,.2,0,.2,0s.1,0,.1,0c.2,0,.6.4,1,.7-.5.4-1,.9-1.2,1,0,0,0,0,0,0,0-.1-.3-.6-.3-1.2ZM346.9,104.7c0-.3,0-.5.2-.6,0,0,0,0,.2,0s0,0,.1,0c.2,0,.6.3.9.6-.3.3-.7.6-.9.6-.2,0-.3,0-.3,0,0,0-.2-.3-.2-.6ZM350.7,117c0-.1,0-.2,0-.2h0c0,0,.2,0,.3,0s0,0,.1,0c.2,0,.6.4.9.6-.2.1-.4.3-.5.4-.3-.2-.7-.6-.8-.8ZM354.8,109.7c.1-.1.3-.3.4-.4.2,0,.4.2.6.4-.2.2-.4.3-.6.4-.1,0-.3-.2-.4-.4Z"/>
      <path class="cls-2" d="M372.5,183l2.5,16.6h2.2c.2,0,.4,0,.6,0h2.2l.2-2.2c.4-3.8.8-7.6,1.3-11.5l.3-2.8h-9.3Z"/>
      <path class="cls-1" d="M335.8,113.5c-.3,2.6-1.1,3.9-3,3.8-1.7,0-2.7-1.2-2.6-2.9,0-1.8,1.1-3.2,2.9-2.9,1.1.2,2.1,1.5,2.8,2Z"/>
      <path class="cls-1" d="M346.8,111.7c-1.8,1.4-2.8,2.8-4,3-1.9.3-2.6-1.5-2.6-3.1,0-1.7,1.2-2.8,2.9-2.6,1.1.2,2,1.3,3.8,2.6Z"/>
      <path class="cls-1" d="M350.8,105.3c-1,.7-1.9,1.8-3,2-1.6.3-2.8-.9-2.8-2.6,0-1.7,1.2-2.9,2.8-2.6,1.1.2,2,1.3,3,2,0,.4,0,.8,0,1.1Z"/>
      <path class="cls-1" d="M327.3,104.1c.7,1,1.8,1.9,2,3,.3,1.7-1.1,2.9-2.7,2.6-1-.2-2.5-1.6-2.5-2.5,0-1,1.3-2.1,2.1-3.2.4,0,.8,0,1.2,0Z"/>
      <path class="cls-1" d="M340.1,106.6c-1,.7-2,1.7-3.1,1.9-1.6.3-2.7-.8-2.7-2.5,0-1.7,1.1-2.9,2.8-2.6,1.1.2,2.1,1.3,3.1,2,0,.4,0,.8,0,1.2Z"/>
      <path class="cls-1" d="M358.4,110.1c-1.1.7-2.2,2-3.2,2-.9,0-2.5-1.5-2.5-2.4,0-.9,1.4-2.5,2.3-2.6,1.1-.1,2.2,1.1,3.3,1.7,0,.4,0,.8,0,1.2Z"/>
      <path class="cls-1" d="M354.4,118.1c-1,.7-2.2,1.9-3.1,1.8-1-.1-2.4-1.5-2.6-2.5-.3-1.6,1.1-2.9,2.8-2.6,1.1.2,2,1.4,3,2.1,0,.4,0,.8,0,1.2Z"/>
      <path class="cls-1" d="M198.1,102.6c17.8,0,32.4,14.4,32.4,32.4s-14.4,32.4-32.4,32.4-32.4-14.4-32.4-32.4,14.4-32.4,32.4-32.4Z"/>
      <path class="cls-3" d="M198.1,94.4c-22.4,0-40.7,18.3-40.7,40.7s18.3,40.7,40.7,40.7,40.7-18.3,40.7-40.7-18.3-40.7-40.7-40.7ZM198.1,163.9c-15.8,0-28.8-12.8-28.8-28.8s12.8-28.8,28.8-28.8,28.8,12.8,28.8,28.8-12.8,28.8-28.8,28.8Z"/>
      <g>
        <path class="cls-1" d="M68.8,102.6c17.8,0,32.4,14.4,32.4,32.4s-14.4,32.4-32.4,32.4-32.4-14.4-32.4-32.4,14.4-32.4,32.4-32.4Z"/>
        <path class="cls-3" d="M68.8,94.4c-22.4,0-40.7,18.3-40.7,40.7s18.3,40.7,40.7,40.7,40.7-18.3,40.7-40.7-18.3-40.7-40.7-40.7ZM68.8,163.9c-15.8,0-28.8-12.8-28.8-28.8s12.8-28.8,28.8-28.8,28.8,12.8,28.8,28.8-12.8,28.8-28.8,28.8Z"/>
        <circle class="cls-3" cx="68.8" cy="135.1" r="13.2"/>
      </g>
      <circle class="cls-3" cx="198.1" cy="135.1" r="13.2"/>
    </g>
  </g>
</svg>