<?xml version="1.0" encoding="UTF-8"?>
<svg id="Ebene_2" data-name="Ebene 2" xmlns="http://www.w3.org/2000/svg" viewBox="0 0 524.8 397">
  <defs>
    <style>
      .cls-1 {
        fill: #212450;
      }

      .cls-2 {
        fill: #c8f3d1;
      }

      .cls-3 {
        fill: #65e07f;
      }

      .cls-4 {
        fill: #fff8e3;
      }
    </style>
  </defs>
  <g id="Ebene_1-2" data-name="Ebene 1">
    <g>
      <path class="cls-3" d="M390.2,177.2h127.8c0,35.3-14.3,67.2-37.4,90.4-23.1,23.1-55.1,37.4-90.4,37.4h-7.3c4.7-13.3,7.3-27.7,7.3-42.6v-85.2Z"/>
      <path class="cls-3" d="M141.9,305h-7.3c-35.3,0-67.2-14.3-90.4-37.4-23.1-23.1-37.4-55.1-37.4-90.4h127.8v85.2c0,14.9,2.6,29.3,7.3,42.6Z"/>
      <path class="cls-3" d="M262.4,6.8c70,0,126.9,56.3,127.8,126.2-.9-34.8-29.3-62.7-64.4-62.3-34.8.4-62.6,28.9-63.4,63.5h0c-.2-35.4-29.2-64-64.8-63.5-35,.5-62.8,29.5-63,64.4,0-.2,0-.3,0-.5,0-70.6,57.2-127.8,127.8-127.8Z"/>
      <path class="cls-4" d="M262.4,134.2c.9-34.6,28.7-63.1,63.4-63.5,35.1-.4,63.5,27.5,64.4,62.3,0,.5,0,1.1,0,1.6,0,70.6-57.2,127.8-127.8,127.8s-127.6-57-127.8-127.3c.2-34.9,28.1-63.9,63-64.4,35.6-.5,64.5,28.1,64.8,63.5h0Z"/>
      <path class="cls-2" d="M382.9,305c-17.5,49.6-64.9,85.2-120.5,85.2s-67.2-14.3-90.4-37.4c-13.3-13.3-23.7-29.6-30.2-47.8-4.7-13.3-7.3-27.7-7.3-42.6v-126.9c0-.2,0-.3,0-.5.2,70.4,57.4,127.3,127.8,127.3s127.8-57.2,127.8-127.8v127.8c0,14.9-2.6,29.3-7.3,42.6Z"/>
      <path class="cls-1" d="M326.3,95.9c-21.4,0-38.7,17.4-38.7,38.7s3,6.8,6.8,6.8,6.8-3,6.8-6.8c0-13.9,11.3-25.2,25.2-25.2s25.2,11.3,25.2,25.2,3,6.8,6.8,6.8,6.8-3,6.8-6.8c0-21.4-17.4-38.7-38.7-38.7Z"/>
      <path class="cls-1" d="M198.5,109.4c13.9,0,25.2,11.3,25.2,25.2s3,6.8,6.8,6.8,6.8-3,6.8-6.8c0-21.4-17.4-38.7-38.7-38.7s-38.7,17.4-38.7,38.7,3,6.8,6.8,6.8,6.8-3,6.8-6.8c0-13.9,11.3-25.2,25.2-25.2Z"/>
      <path class="cls-1" d="M397,170.4v-35.8c0-.6,0-1.1,0-1.7,0,0,0,0,0,0-.5-35.6-14.6-68.9-40-94C331.7,13.8,298.1,0,262.4,0,188.2,0,127.8,60.4,127.8,134.6s0,.3,0,.4c0,.2,0,.4,0,.5v34.9H0v6.8c0,35.9,14,69.7,39.4,95.2,25.4,25.4,59.2,39.4,95.2,39.4h2.6c6.7,17,17,32.8,30,45.8,25.4,25.4,59.2,39.4,95.2,39.4,55.3,0,105.1-34,125.2-85.2h2.6c35.9,0,69.7-14,95.2-39.4,25.4-25.4,39.4-59.2,39.4-95.2v-6.8h-127.8ZM141.4,134.6h.4s-.4,0-.4,0c.5-31.1,25.6-56.7,56.3-57.1,15.4-.1,29.9,5.7,40.8,16.3,10.9,10.7,17,25.1,17.1,40.4v.4c0,0,0,.2,0,.3,0,.4,0,.7,0,1v41.3c0,3.7,3,6.8,6.8,6.8s6.8-3,6.8-6.8v-41.3c0-.5,0-1,0-1.5.4-15.1,6.4-29.3,17-40,10.6-10.7,24.7-16.8,39.7-16.9,15.1-.2,29.4,5.5,40.2,16,10.8,10.5,16.9,24.5,17.3,39.6,0,.5,0,1,0,1.5,0,66.7-54.3,121-121,121s-120.8-54.1-121-120.5c0-.2,0-.3,0-.4ZM262.4,13.6c32.1,0,62.3,12.4,85.1,34.9,9.1,9,16.6,19.2,22.4,30.3-12.3-9.6-27.4-14.9-43.3-14.9h-.8c-18.5.2-36,7.7-49.2,21-5.1,5.1-9.3,10.9-12.6,17.2l-1.3,2.5-1.3-2.5c-3.4-6.6-7.9-12.6-13.3-17.9-13.3-13.1-30.9-20.2-49.5-20.2s-.6,0-.9,0c-16.2.2-31.1,6.1-42.9,15.7,20.1-39.2,60.8-66,107.8-66ZM13.9,185.6v-1.6c-.1,0,114,0,114,0v78.4c0,12.2,1.6,24.2,4.8,35.8-31.6-.5-61.2-13-83.6-35.4-20.7-20.7-33.2-48.1-35.2-77.2ZM262.4,383.4c-32.3,0-62.7-12.6-85.6-35.5-12.7-12.7-22.6-28.4-28.6-45.2-4.6-12.9-6.9-26.5-6.9-40.3v-69.1c21.9,44.8,68,75.8,121,75.8s99.2-30.9,121-75.7v69c0,13.8-2.3,27.4-6.9,40.3-17,48.3-62.9,80.7-114.1,80.7ZM511,185.6c-2,29.1-14.5,56.5-35.2,77.2-22.4,22.4-52,34.9-83.6,35.4,3.2-11.6,4.8-23.6,4.8-35.8v-78.4h114.1v1.6Z"/>
    </g>
  </g>
</svg>