<?xml version="1.0" encoding="utf-8"?>
<!-- Generator: Adobe Illustrator 28.0.0, SVG Export Plug-In . SVG Version: 6.00 Build 0)  -->
<svg version="1.1" id="Ebene_2" xmlns="http://www.w3.org/2000/svg" xmlns:xlink="http://www.w3.org/1999/xlink" x="0px" y="0px"
	 viewBox="0 0 269.2 397" style="enable-background:new 0 0 269.2 397;" xml:space="preserve">
<style type="text/css">
	.st0{fill:#FFF8E3;}
	.st1{fill:#65E07F;}
	.st2{fill:#C8F3D1;}
	.st3{fill:#212450;}
</style>
<g id="Ebene_1-2">
	<g>
		<path class="st0" d="M134.2,135c0.9-34.6,28.7-63.1,63.4-63.5c35.1-0.4,63.5,27.5,64.4,62.3c0,0.5,0,1.1,0,1.6
			c0,70.6-57.2,127.8-127.8,127.8S6.6,206.2,6.4,135.8c0.2-34.9,28.1-63.9,63-64.4c35.6-0.5,64.5,28.1,64.8,63.5l0,0L134.2,135z"/>
		<path class="st1" d="M134.6,6.8c70.6,0,127.8,57.2,127.8,127.8v0.3c-0.2-34.8-27.9-63.7-62.7-64.2c-35.7-0.5-65.1,28.3-65.1,63.9
			c0-35.6-29.1-64.4-64.8-63.9c-35,0.5-62.8,29.5-63,64.4c0-0.2,0-0.3,0-0.5C6.8,64,64,6.8,134.6,6.8z"/>
		<path class="st2" d="M134.6,262.4c70.5,0,127.6-57,127.8-127.5V263c0,70.3-57,127.2-127.2,127.2H7.4
			C77.9,390.2,135,332.9,134.6,262.4L134.6,262.4z"/>
		<path class="st1" d="M134.6,262.4c0.3,70.5-56.7,127.8-127.2,127.8H6.8V135.5c0-0.2,0-0.3,0-0.5C7,205.4,64.2,262.3,134.6,262.4
			L134.6,262.4z"/>
		<g>
			<path class="st3" d="M230,142.1c3.7,0,6.8-3,6.8-6.8c0-21.4-17.4-38.7-38.7-38.7s-38.7,17.4-38.7,38.7c0,4.4,3,6.8,6.8,6.8
				s6.8-3,6.8-6.8c0-13.9,11.3-25.2,25.2-25.2s25.2,11.3,25.2,25.2c0,4.5,3,6.8,6.8,6.8H230z"/>
			<path class="st3" d="M70.3,96.6c-21.4,0-38.7,17.4-38.7,38.7c0,4.7,3,6.8,6.8,6.8s6.8-3,6.8-6.8c0-13.9,11.3-25.2,25.2-25.2
				s25.2,11.3,25.2,25.2c0,4.6,3,6.8,6.8,6.8s6.8-3,6.8-6.8c0-21.4-17.4-38.7-38.7-38.7L70.3,96.6z"/>
			<path class="st3" d="M134.6,0C60.4,0,0,60.4,0,134.6s0,0.3,0,0.5s0,0.3,0,0.5v254.7c0,3.7,3,6.8,6.8,6.8h128.4
				c73.9,0,134-60.1,134-134V135l0,0v-0.3C269.2,60.4,208.8,0,134.6,0z M134.6,13.6c46.8,0,87.5,26.7,107.6,65.7
				c-11.7-9.4-26.5-15.1-42.4-15.4c-0.3,0-0.7,0-1,0c-18.8,0-36.5,7.3-49.9,20.5c-6,5.9-10.8,12.6-14.3,19.9
				c-3.5-7.4-8.3-14.2-14.3-20.1C107,71.1,89.4,63.8,70.6,63.8s-0.6,0-0.9,0C53.5,64,38.6,69.9,26.8,79.5
				C46.9,40.4,87.7,13.6,134.6,13.6z M13.6,193.4c20.9,42.9,64,73.1,114.1,75.7c-1.5,29.8-13.7,57.6-34.9,78.9
				c-21.3,21.4-49.2,33.8-79.2,35.3L13.6,193.4L13.6,193.4z M134.6,255.6c-66.1,0-120.2-53.5-121-119.5l0,0v-0.6l0,0l0,0v-0.4
				c0.2-31.3,25.5-57.2,56.4-57.6c15.5-0.2,30,5.7,40.9,16.5c11,10.8,17,25.3,17,40.7v42.6c0,3.7,3,6.8,6.8,6.8s6.8-3,6.8-6.8v-42.6
				c0-15.3,6-29.7,17-40.5c11-10.9,25.7-16.7,41.2-16.6c30.7,0.4,55.8,26.2,56,57.4c-0.2,66.6-54.5,120.7-121,120.7L134.6,255.6z
				 M135.2,383.4H66.3c13.2-6.5,25.4-15.2,36.1-25.9c23.8-23.9,37.4-55.1,38.9-88.5c50.3-2.5,93.4-32.7,114.4-75.6V263
				C255.7,329.4,201.7,383.4,135.2,383.4L135.2,383.4z"/>
		</g>
	</g>
</g>
</svg>
